<svg width="50" height="50" viewBox="0 0 50 50" fill="none" xmlns="http://www.w3.org/2000/svg">
<path id="Vector" d="M37.0052 30.6659C37.0052 32.8562 37.6276 33.7297 39.2552 33.7297C42.8828 33.7297 45.1927 29.1015 45.1927 21.4044C45.1927 9.63965 36.6302 4.00761 25.9401 4.00761C14.9427 4.00761 4.9401 11.3918 4.9401 25.3468C4.9401 38.6759 13.6901 45.935 27.1276 45.935C31.6901 45.935 34.7526 45.4344 39.4375 43.8699L40.4427 48.0601C35.8177 49.5646 30.875 50 27.0651 50C9.44011 50 0 40.3004 0 25.3442C0 10.2628 10.9401 0 26.0026 0C41.6901 0 50 9.38673 50 20.9011C50 30.6633 46.9401 38.1101 37.3151 38.1101C32.9375 38.1101 30.0651 36.3579 29.6901 32.4755C28.5651 36.7934 25.5651 38.1101 21.5 38.1101C16.0625 38.1101 11.5 33.9148 11.5 25.4693C11.5 16.9587 15.5026 11.7021 22.6901 11.7021C26.5026 11.7021 28.8776 13.204 29.9349 15.582L31.75 12.2653H37V30.6659H37.0052ZM29.3203 22.4056C29.3203 18.9664 26.7552 17.5245 24.6302 17.5245C22.3177 17.5245 19.7578 19.3992 19.7578 24.9087C19.7578 29.2892 21.6953 31.7298 24.6302 31.7298C26.6927 31.7298 29.3203 30.4156 29.3203 26.7861V22.4056Z" fill="white"/>
</svg>
