<svg width="26" height="25" viewBox="0 0 26 25" fill="none" xmlns="http://www.w3.org/2000/svg">
<path id="github-[#142]" fill-rule="evenodd" clip-rule="evenodd" d="M13 0C19.9037 0 25.5 5.73741 25.5 12.8161C25.5 18.4774 21.9225 23.2799 16.9587 24.9762C16.325 25.1024 16.1 24.7022 16.1 24.3609C16.1 23.9384 16.115 22.5585 16.115 20.8435C16.115 19.6485 15.715 18.8685 15.2663 18.471C18.05 18.1535 20.975 17.0697 20.975 12.1472C20.975 10.7472 20.49 9.60476 19.6875 8.70727C19.8175 8.38352 20.2462 7.07993 19.565 5.31494C19.565 5.31494 18.5175 4.97152 16.1312 6.62902C15.1325 6.34527 14.0625 6.2025 13 6.1975C11.9375 6.2025 10.8688 6.34527 9.87125 6.62902C7.4825 4.97152 6.4325 5.31494 6.4325 5.31494C5.75375 7.07993 6.1825 8.38352 6.31125 8.70727C5.5125 9.60476 5.02375 10.7472 5.02375 12.1472C5.02375 17.0572 7.9425 18.1577 10.7188 18.4814C10.3613 18.8014 10.0375 19.3659 9.925 20.1947C9.2125 20.5222 7.4025 21.089 6.2875 19.1302C6.2875 19.1302 5.62625 17.8988 4.37125 17.8088C4.37125 17.8088 3.1525 17.7926 4.28625 18.5876C4.28625 18.5876 5.105 18.9814 5.67375 20.4626C5.67375 20.4626 6.4075 22.7501 9.885 21.9751C9.89125 23.0463 9.9025 24.0559 9.9025 24.3609C9.9025 24.6997 9.6725 25.0961 9.04875 24.9774C4.08125 23.2836 0.5 18.4786 0.5 12.8161C0.5 5.73741 6.0975 0 13 0Z" fill="white"/>
</svg>
