<svg width="26" height="25" viewBox="0 0 26 25" fill="none" xmlns="http://www.w3.org/2000/svg">
<path id="Vector" d="M13 0C6.0957 0 0.5 5.5957 0.5 12.5C0.5 19.4043 6.0957 25 13 25C19.9043 25 25.5 19.4043 25.5 12.5C25.5 5.5957 19.9043 0 13 0ZM9.50391 17.7295H7.06738V9.93164H9.50391V17.7295ZM8.21973 8.95508H8.2002C7.31641 8.95508 6.74512 8.35938 6.74512 7.60254C6.74512 6.83106 7.33594 6.25 8.23437 6.25C9.13281 6.25 9.68457 6.83106 9.7041 7.60254C9.70898 8.35449 9.1377 8.95508 8.21973 8.95508ZM19.25 17.7295H16.4863V13.6963C16.4863 12.6416 16.0566 11.9189 15.1045 11.9189C14.377 11.9189 13.9717 12.4072 13.7861 12.876C13.7178 13.042 13.7275 13.2764 13.7275 13.5156V17.7295H10.9883C10.9883 17.7295 11.0225 10.5811 10.9883 9.93164H13.7275V11.1572C13.8887 10.6201 14.7627 9.8584 16.1592 9.8584C17.8926 9.8584 19.25 10.9814 19.25 13.3936V17.7295Z" fill="white"/>
</svg>
