<svg width="35" height="40" viewBox="0 0 35 40" fill="none" xmlns="http://www.w3.org/2000/svg">
<path id="Vector" d="M17.5 0C14.8478 0 12.3043 1.05357 10.4289 2.92893C8.55357 4.8043 7.5 7.34784 7.5 10C7.5 12.6522 8.55357 15.1957 10.4289 17.0711C12.3043 18.9464 14.8478 20 17.5 20C20.1522 20 22.6957 18.9464 24.5711 17.0711C26.4464 15.1957 27.5 12.6522 27.5 10C27.5 7.34784 26.4464 4.8043 24.5711 2.92893C22.6957 1.05357 20.1522 0 17.5 0ZM5.0225 22.5C4.36409 22.4974 3.71164 22.6247 3.10256 22.8748C2.49348 23.1249 1.93976 23.4927 1.47315 23.9572C1.00654 24.4217 0.636212 24.9738 0.383416 25.5818C0.13062 26.1897 0.00032378 26.8416 0 27.5C0 31.7275 2.0825 34.915 5.3375 36.9925C8.5425 39.035 12.8625 40 17.5 40C22.1375 40 26.4575 39.035 29.6625 36.9925C32.9175 34.9175 35 31.725 35 27.5C35 26.1739 34.4732 24.9021 33.5355 23.9645C32.5979 23.0268 31.3261 22.5 30 22.5H5.0225Z" fill="#F8F8F8"/>
</svg>
