<svg width="89" height="94" viewBox="0 0 89 94" fill="none" xmlns="http://www.w3.org/2000/svg">
<path id="Vector" d="M74.1478 0.000197669C73.2321 0.714175 72.3832 1.54148 71.6198 2.50327C69.1675 5.59335 67.7196 9.92251 67.6058 15.7109C63.7863 13.3462 59.5869 12.3807 55.5159 12.5405C51.2446 12.7076 47.1126 14.112 43.7188 16.4278C39.8407 19.0745 36.8534 22.9545 35.7604 27.627C34.8761 31.4085 35.2952 35.6508 37.3408 39.9264C36.2869 39.8529 35.231 39.8158 34.1749 39.815C33.8674 39.815 33.5635 39.8204 33.262 39.8275C26.0245 39.9952 20.4379 42.0889 16.8887 46.1378C12.6799 50.9388 11.8121 58.1469 14.2146 66.787C9.35721 65.5424 4.45633 65.7071 0.000561461 67.8562V75.9465C1.09601 74.9694 2.44239 74.1243 4.03819 73.4372H4.0438L19.2528 84.3336C19.2565 84.4839 19.2588 84.6362 19.2584 84.7845C19.2558 87.4589 18.7056 89.6964 17.6143 91.5832L0.000374307 78.7217V83.2146L14.7762 93.9998H20.2767C21.9071 91.3866 22.7541 88.25 22.7578 84.7907C22.7616 81.1581 21.8895 77.1618 20.1713 72.8378C29.8455 76.0378 38.4784 73.4999 43.3502 67.6275C48.0725 61.9355 48.9951 53.2408 44.4096 44.71C50.9392 45.797 56.5082 45.5229 60.9406 43.8509L60.9818 43.913L61.1862 43.7587C62.783 43.1318 64.2307 42.3229 65.5165 41.3233C70.2931 37.611 72.4188 31.4014 71.7136 23.5975C77.0289 27.2971 83.1844 27.93 89 27.3183V12.5961L84.6463 0L74.1478 0.000197669ZM81.1118 0.568809L87.9523 20.3341C86.3447 20.4904 84.5922 20.4844 82.7091 20.3217L76.354 2.87411C77.7272 1.83103 79.3325 1.08521 81.1116 0.568611L81.1118 0.568809ZM73.662 5.77274L78.7591 19.7714C76.3825 19.3274 73.8418 18.6678 71.1458 17.763C70.947 12.1861 71.9593 8.3927 73.6622 5.77274H73.662ZM59.5007 19.5555C62.01 19.6848 64.7767 20.0855 67.7576 20.7605C68.575 25.0749 68.5531 28.6653 67.7868 31.5889L59.5007 19.5555ZM55.2114 19.6109L66.1135 35.4394C65.387 36.5594 64.4967 37.5269 63.4451 38.3444C63.0335 38.664 62.5922 38.9587 62.1225 39.2344L49.6466 20.7791C51.2686 20.1838 53.1277 19.7869 55.2114 19.6109ZM46.4456 22.4047L58.7871 40.6682C57.0962 41.1785 55.1717 41.4859 53.029 41.5766L42.7006 26.5888C43.5062 25.0917 44.5777 23.8368 45.8956 22.8125C46.0735 22.674 46.257 22.535 46.4458 22.4047H46.4456ZM41.2608 30.7916L48.6224 41.4776C46.5935 41.3098 44.4144 40.9772 42.0917 40.4703L42.0799 40.4394L41.7934 40.4026C41.7346 40.3894 41.6767 40.3789 41.6177 40.3654C41.5797 40.3051 41.544 40.2468 41.5067 40.1863C40.841 36.5497 40.7764 33.4276 41.2607 30.7918L41.2608 30.7916ZM34.0983 43.5297C35.7817 43.5265 37.6018 43.646 39.5171 43.8635C40.5601 46.9874 41.1447 49.7929 41.3136 52.2938L32.5828 43.5667C32.8476 43.5542 33.1131 43.5424 33.3843 43.5358C33.6191 43.5299 33.858 43.5299 34.0983 43.5295V43.5297ZM28.0476 44.1171L41.062 57.1269C40.6257 59.3948 39.725 61.2973 38.4112 62.8377L22.2075 46.3421C23.8085 45.3487 25.7569 44.5943 28.0476 44.1171ZM19.4455 48.6597L35.6665 65.18C34.1825 66.1116 32.3924 66.836 30.3007 67.3186L16.9999 54.018L16.7246 54.3272C17.1881 52.0776 18.1107 50.1871 19.4455 48.6597ZM16.3909 58.505L25.8356 67.9489C23.5424 68.0945 20.992 68.0185 18.1936 67.6958C17.0519 64.2538 16.4709 61.1934 16.3911 58.505H16.3909ZM15.6831 71.3855C17.0401 74.26 17.9938 76.9347 18.5736 79.3832L8.39152 72.0963C10.5379 71.6468 12.9699 71.3982 15.6829 71.3855H15.6831ZM0.000374307 89.4946L0 93.8517L0.228453 94H6.86426L0 89.4946H0.000374307Z" fill="#F8F8F8"/>
</svg>
