<svg width="86" height="83" viewBox="0 0 86 83" fill="none" xmlns="http://www.w3.org/2000/svg">
<path id="Vector" d="M85.7892 41.125V35.25H79.6699V23.5C79.6659 20.3849 78.3751 17.3985 76.0808 15.1958C73.7865 12.9931 70.676 11.7539 67.4313 11.75H61.312V0H55.1928V11.75H30.7156V0H24.5963V11.75H18.477C15.2324 11.7539 12.1218 12.9931 9.8275 15.1958C7.5332 17.3985 6.24248 20.3849 6.23843 23.5V35.25H0.119141V41.125H6.23843V55.8125H0.119141V61.6875H6.23843V70.5C6.24248 73.6151 7.5332 76.6015 9.8275 78.8042C12.1218 81.0069 15.2324 82.2461 18.477 82.25H67.4313C70.676 82.2461 73.7865 81.0069 76.0808 78.8042C78.3751 76.6015 79.6659 73.6151 79.6699 70.5V61.6875H85.7892V55.8125H79.6699V41.125H85.7892ZM73.5506 70.5C73.549 72.0577 72.9038 73.5511 71.7565 74.6525C70.6093 75.754 69.0538 76.3734 67.4313 76.375H18.477C16.8546 76.3734 15.299 75.754 14.1518 74.6525C13.0046 73.5511 12.3593 72.0577 12.3577 70.5V23.5C12.3593 21.9423 13.0046 20.4489 14.1518 19.3475C15.299 18.246 16.8546 17.6266 18.477 17.625H67.4313C69.0538 17.6266 70.6093 18.246 71.7565 19.3475C72.9038 20.4489 73.549 21.9423 73.5506 23.5V70.5Z" fill="#F8F8F8"/>
</svg>
