<svg width="1363" height="163" viewBox="0 0 1363 163" fill="none" xmlns="http://www.w3.org/2000/svg">
<path d="M0 15C0 6.71573 6.71573 0 15 0H37V163H15C6.71573 163 0 156.284 0 148V15Z" fill="#1D2D3B"/>
<rect width="1097" height="163" transform="translate(37)" fill="#F0F0F0"/>
<path d="M101.906 53.9219L94.3945 51.2383V48.0859L104.602 52.375V54.6367L101.906 53.9219ZM94.3945 56.1719L101.918 53.4297L104.602 52.7852V55.0352L94.3945 59.3242V56.1719ZM123.867 58.2578V61H115.277V58.2578H123.867ZM116.414 43.9375V61H112.898V43.9375H116.414ZM129.234 48.3203V61H125.848V48.3203H129.234ZM125.637 45.0156C125.637 44.5234 125.809 44.1172 126.152 43.7969C126.496 43.4766 126.957 43.3164 127.535 43.3164C128.105 43.3164 128.562 43.4766 128.906 43.7969C129.258 44.1172 129.434 44.5234 129.434 45.0156C129.434 45.5078 129.258 45.9141 128.906 46.2344C128.562 46.5547 128.105 46.7148 127.535 46.7148C126.957 46.7148 126.496 46.5547 126.152 46.2344C125.809 45.9141 125.637 45.5078 125.637 45.0156ZM142.125 55.3398H145.629C145.559 56.4883 145.242 57.5078 144.68 58.3984C144.125 59.2891 143.348 59.9844 142.348 60.4844C141.355 60.9844 140.16 61.2344 138.762 61.2344C137.668 61.2344 136.688 61.0469 135.82 60.6719C134.953 60.2891 134.211 59.7422 133.594 59.0312C132.984 58.3203 132.52 57.4609 132.199 56.4531C131.879 55.4453 131.719 54.3164 131.719 53.0664V51.8828C131.719 50.6328 131.883 49.5039 132.211 48.4961C132.547 47.4805 133.023 46.6172 133.641 45.9062C134.266 45.1953 135.012 44.6484 135.879 44.2656C136.746 43.8828 137.715 43.6914 138.785 43.6914C140.207 43.6914 141.406 43.9492 142.383 44.4648C143.367 44.9805 144.129 45.6914 144.668 46.5977C145.215 47.5039 145.543 48.5352 145.652 49.6914H142.137C142.098 49.0039 141.961 48.4219 141.727 47.9453C141.492 47.4609 141.137 47.0977 140.66 46.8555C140.191 46.6055 139.566 46.4805 138.785 46.4805C138.199 46.4805 137.688 46.5898 137.25 46.8086C136.812 47.0273 136.445 47.3594 136.148 47.8047C135.852 48.25 135.629 48.8125 135.48 49.4922C135.34 50.1641 135.27 50.9531 135.27 51.8594V53.0664C135.27 53.9492 135.336 54.7266 135.469 55.3984C135.602 56.0625 135.805 56.625 136.078 57.0859C136.359 57.5391 136.719 57.8828 137.156 58.1172C137.602 58.3438 138.137 58.457 138.762 58.457C139.496 58.457 140.102 58.3398 140.578 58.1055C141.055 57.8711 141.418 57.5234 141.668 57.0625C141.926 56.6016 142.078 56.0273 142.125 55.3398ZM153.562 61.2344C152.578 61.2344 151.695 61.0781 150.914 60.7656C150.133 60.4453 149.469 60.0039 148.922 59.4414C148.383 58.8789 147.969 58.2266 147.68 57.4844C147.391 56.7344 147.246 55.9375 147.246 55.0938V54.625C147.246 53.6641 147.383 52.7852 147.656 51.9883C147.93 51.1914 148.32 50.5 148.828 49.9141C149.344 49.3281 149.969 48.8789 150.703 48.5664C151.438 48.2461 152.266 48.0859 153.188 48.0859C154.086 48.0859 154.883 48.2344 155.578 48.5312C156.273 48.8281 156.855 49.25 157.324 49.7969C157.801 50.3438 158.16 51 158.402 51.7656C158.645 52.5234 158.766 53.3672 158.766 54.2969V55.7031H148.688V53.4531H155.449V53.1953C155.449 52.7266 155.363 52.3086 155.191 51.9414C155.027 51.5664 154.777 51.2695 154.441 51.0508C154.105 50.832 153.676 50.7227 153.152 50.7227C152.707 50.7227 152.324 50.8203 152.004 51.0156C151.684 51.2109 151.422 51.4844 151.219 51.8359C151.023 52.1875 150.875 52.6016 150.773 53.0781C150.68 53.5469 150.633 54.0625 150.633 54.625V55.0938C150.633 55.6016 150.703 56.0703 150.844 56.5C150.992 56.9297 151.199 57.3008 151.465 57.6133C151.738 57.9258 152.066 58.168 152.449 58.3398C152.84 58.5117 153.281 58.5977 153.773 58.5977C154.383 58.5977 154.949 58.4805 155.473 58.2461C156.004 58.0039 156.461 57.6406 156.844 57.1562L158.484 58.9375C158.219 59.3203 157.855 59.6875 157.395 60.0391C156.941 60.3906 156.395 60.6797 155.754 60.9062C155.113 61.125 154.383 61.2344 153.562 61.2344ZM167.543 57.4961C167.543 57.2539 167.473 57.0352 167.332 56.8398C167.191 56.6445 166.93 56.4648 166.547 56.3008C166.172 56.1289 165.629 55.9727 164.918 55.832C164.277 55.6914 163.68 55.5156 163.125 55.3047C162.578 55.0859 162.102 54.8242 161.695 54.5195C161.297 54.2148 160.984 53.8555 160.758 53.4414C160.531 53.0195 160.418 52.5391 160.418 52C160.418 51.4688 160.531 50.9688 160.758 50.5C160.992 50.0312 161.324 49.6172 161.754 49.2578C162.191 48.8906 162.723 48.6055 163.348 48.4023C163.98 48.1914 164.691 48.0859 165.48 48.0859C166.582 48.0859 167.527 48.2617 168.316 48.6133C169.113 48.9648 169.723 49.4492 170.145 50.0664C170.574 50.6758 170.789 51.3711 170.789 52.1523H167.414C167.414 51.8242 167.344 51.5312 167.203 51.2734C167.07 51.0078 166.859 50.8008 166.57 50.6523C166.289 50.4961 165.922 50.418 165.469 50.418C165.094 50.418 164.77 50.4844 164.496 50.6172C164.223 50.7422 164.012 50.9141 163.863 51.1328C163.723 51.3438 163.652 51.5781 163.652 51.8359C163.652 52.0312 163.691 52.207 163.77 52.3633C163.855 52.5117 163.992 52.6484 164.18 52.7734C164.367 52.8984 164.609 53.0156 164.906 53.125C165.211 53.2266 165.586 53.3203 166.031 53.4062C166.945 53.5938 167.762 53.8398 168.48 54.1445C169.199 54.4414 169.77 54.8477 170.191 55.3633C170.613 55.8711 170.824 56.5391 170.824 57.3672C170.824 57.9297 170.699 58.4453 170.449 58.9141C170.199 59.3828 169.84 59.793 169.371 60.1445C168.902 60.4883 168.34 60.7578 167.684 60.9531C167.035 61.1406 166.305 61.2344 165.492 61.2344C164.312 61.2344 163.312 61.0234 162.492 60.6016C161.68 60.1797 161.062 59.6445 160.641 58.9961C160.227 58.3398 160.02 57.668 160.02 56.9805H163.219C163.234 57.4414 163.352 57.8125 163.57 58.0938C163.797 58.375 164.082 58.5781 164.426 58.7031C164.777 58.8281 165.156 58.8906 165.562 58.8906C166 58.8906 166.363 58.832 166.652 58.7148C166.941 58.5898 167.16 58.4258 167.309 58.2227C167.465 58.0117 167.543 57.7695 167.543 57.4961ZM179.871 57.4961C179.871 57.2539 179.801 57.0352 179.66 56.8398C179.52 56.6445 179.258 56.4648 178.875 56.3008C178.5 56.1289 177.957 55.9727 177.246 55.832C176.605 55.6914 176.008 55.5156 175.453 55.3047C174.906 55.0859 174.43 54.8242 174.023 54.5195C173.625 54.2148 173.312 53.8555 173.086 53.4414C172.859 53.0195 172.746 52.5391 172.746 52C172.746 51.4688 172.859 50.9688 173.086 50.5C173.32 50.0312 173.652 49.6172 174.082 49.2578C174.52 48.8906 175.051 48.6055 175.676 48.4023C176.309 48.1914 177.02 48.0859 177.809 48.0859C178.91 48.0859 179.855 48.2617 180.645 48.6133C181.441 48.9648 182.051 49.4492 182.473 50.0664C182.902 50.6758 183.117 51.3711 183.117 52.1523H179.742C179.742 51.8242 179.672 51.5312 179.531 51.2734C179.398 51.0078 179.188 50.8008 178.898 50.6523C178.617 50.4961 178.25 50.418 177.797 50.418C177.422 50.418 177.098 50.4844 176.824 50.6172C176.551 50.7422 176.34 50.9141 176.191 51.1328C176.051 51.3438 175.98 51.5781 175.98 51.8359C175.98 52.0312 176.02 52.207 176.098 52.3633C176.184 52.5117 176.32 52.6484 176.508 52.7734C176.695 52.8984 176.938 53.0156 177.234 53.125C177.539 53.2266 177.914 53.3203 178.359 53.4062C179.273 53.5938 180.09 53.8398 180.809 54.1445C181.527 54.4414 182.098 54.8477 182.52 55.3633C182.941 55.8711 183.152 56.5391 183.152 57.3672C183.152 57.9297 183.027 58.4453 182.777 58.9141C182.527 59.3828 182.168 59.793 181.699 60.1445C181.23 60.4883 180.668 60.7578 180.012 60.9531C179.363 61.1406 178.633 61.2344 177.82 61.2344C176.641 61.2344 175.641 61.0234 174.82 60.6016C174.008 60.1797 173.391 59.6445 172.969 58.9961C172.555 58.3398 172.348 57.668 172.348 56.9805H175.547C175.562 57.4414 175.68 57.8125 175.898 58.0938C176.125 58.375 176.41 58.5781 176.754 58.7031C177.105 58.8281 177.484 58.8906 177.891 58.8906C178.328 58.8906 178.691 58.832 178.98 58.7148C179.27 58.5898 179.488 58.4258 179.637 58.2227C179.793 58.0117 179.871 57.7695 179.871 57.4961Z" fill="#888888"/>
<path d="M112.125 84.875V119H103.898V84.875H112.125ZM122.391 84.875V91.2266H93.8672V84.875H122.391ZM134.695 112.625V102.172C134.695 101.453 134.594 100.836 134.391 100.32C134.188 99.8047 133.867 99.4062 133.43 99.125C132.992 98.8281 132.406 98.6797 131.672 98.6797C131.078 98.6797 130.57 98.7812 130.148 98.9844C129.727 99.1875 129.406 99.4922 129.188 99.8984C128.969 100.305 128.859 100.82 128.859 101.445H120.961C120.961 100.273 121.219 99.1875 121.734 98.1875C122.266 97.1719 123.016 96.2891 123.984 95.5391C124.969 94.7891 126.141 94.2109 127.5 93.8047C128.875 93.3828 130.406 93.1719 132.094 93.1719C134.109 93.1719 135.906 93.5078 137.484 94.1797C139.078 94.8516 140.336 95.8594 141.258 97.2031C142.18 98.5312 142.641 100.203 142.641 102.219V112.602C142.641 114.258 142.734 115.516 142.922 116.375C143.109 117.219 143.375 117.961 143.719 118.602V119H135.797C135.422 118.219 135.141 117.266 134.953 116.141C134.781 115 134.695 113.828 134.695 112.625ZM135.656 103.508L135.703 107.727H132.211C131.477 107.727 130.852 107.828 130.336 108.031C129.836 108.234 129.43 108.516 129.117 108.875C128.82 109.219 128.602 109.609 128.461 110.047C128.336 110.484 128.273 110.945 128.273 111.43C128.273 111.898 128.383 112.32 128.602 112.695C128.836 113.055 129.148 113.336 129.539 113.539C129.93 113.742 130.367 113.844 130.852 113.844C131.727 113.844 132.469 113.68 133.078 113.352C133.703 113.008 134.18 112.594 134.508 112.109C134.836 111.625 135 111.172 135 110.75L136.734 113.984C136.422 114.609 136.062 115.242 135.656 115.883C135.266 116.523 134.773 117.117 134.18 117.664C133.602 118.195 132.891 118.633 132.047 118.977C131.203 119.305 130.18 119.469 128.977 119.469C127.414 119.469 125.977 119.148 124.664 118.508C123.367 117.867 122.328 116.977 121.547 115.836C120.766 114.68 120.375 113.352 120.375 111.852C120.375 110.539 120.609 109.367 121.078 108.336C121.562 107.305 122.289 106.43 123.258 105.711C124.227 104.992 125.461 104.445 126.961 104.07C128.461 103.695 130.227 103.508 132.258 103.508H135.656ZM147.094 83H154.992V112.766L154.172 119H147.094V83ZM170.555 106.039V106.531C170.555 108.453 170.359 110.203 169.969 111.781C169.578 113.359 168.977 114.727 168.164 115.883C167.352 117.023 166.328 117.906 165.094 118.531C163.859 119.156 162.398 119.469 160.711 119.469C159.18 119.469 157.867 119.141 156.773 118.484C155.68 117.812 154.766 116.891 154.031 115.719C153.297 114.531 152.703 113.164 152.25 111.617C151.797 110.055 151.438 108.383 151.172 106.602V106.016C151.438 104.25 151.797 102.594 152.25 101.047C152.703 99.4844 153.297 98.1172 154.031 96.9453C154.766 95.7578 155.672 94.8359 156.75 94.1797C157.844 93.5078 159.148 93.1719 160.664 93.1719C162.367 93.1719 163.836 93.4922 165.07 94.1328C166.32 94.7734 167.352 95.6719 168.164 96.8281C168.977 97.9844 169.578 99.3438 169.969 100.906C170.359 102.469 170.555 104.18 170.555 106.039ZM162.656 106.531V106.039C162.656 105.117 162.602 104.25 162.492 103.438C162.383 102.625 162.188 101.906 161.906 101.281C161.625 100.656 161.227 100.164 160.711 99.8047C160.195 99.4453 159.523 99.2656 158.695 99.2656C157.852 99.2656 157.141 99.4062 156.562 99.6875C156 99.9688 155.547 100.375 155.203 100.906C154.875 101.422 154.641 102.062 154.5 102.828C154.359 103.578 154.297 104.43 154.312 105.383V107.234C154.281 108.531 154.398 109.641 154.664 110.562C154.93 111.484 155.391 112.188 156.047 112.672C156.703 113.156 157.602 113.398 158.742 113.398C159.586 113.398 160.266 113.234 160.781 112.906C161.312 112.578 161.711 112.109 161.977 111.5C162.242 110.891 162.422 110.164 162.516 109.32C162.609 108.477 162.656 107.547 162.656 106.531ZM182.414 83V119H174.492V83H182.414ZM199.57 119.469C197.508 119.469 195.664 119.148 194.039 118.508C192.414 117.852 191.039 116.953 189.914 115.812C188.805 114.672 187.953 113.359 187.359 111.875C186.781 110.391 186.492 108.82 186.492 107.164V106.273C186.492 104.414 186.75 102.695 187.266 101.117C187.781 99.5234 188.547 98.1328 189.562 96.9453C190.578 95.7578 191.852 94.8359 193.383 94.1797C194.914 93.5078 196.695 93.1719 198.727 93.1719C200.523 93.1719 202.133 93.4609 203.555 94.0391C204.977 94.6172 206.18 95.4453 207.164 96.5234C208.164 97.6016 208.922 98.9062 209.438 100.438C209.969 101.969 210.234 103.688 210.234 105.594V108.805H189.516V103.859H202.523V103.25C202.539 102.406 202.391 101.688 202.078 101.094C201.781 100.5 201.344 100.047 200.766 99.7344C200.188 99.4219 199.484 99.2656 198.656 99.2656C197.797 99.2656 197.086 99.4531 196.523 99.8281C195.977 100.203 195.547 100.719 195.234 101.375C194.938 102.016 194.727 102.758 194.602 103.602C194.477 104.445 194.414 105.336 194.414 106.273V107.164C194.414 108.102 194.539 108.953 194.789 109.719C195.055 110.484 195.43 111.141 195.914 111.688C196.414 112.219 197.008 112.633 197.695 112.93C198.398 113.227 199.195 113.375 200.086 113.375C201.164 113.375 202.227 113.172 203.273 112.766C204.32 112.359 205.219 111.688 205.969 110.75L209.555 115.016C209.039 115.75 208.305 116.461 207.352 117.148C206.414 117.836 205.289 118.398 203.977 118.836C202.664 119.258 201.195 119.469 199.57 119.469ZM224.414 106.578V106.086C224.414 104.227 224.68 102.516 225.211 100.953C225.742 99.375 226.523 98.0078 227.555 96.8516C228.586 95.6953 229.859 94.7969 231.375 94.1562C232.891 93.5 234.641 93.1719 236.625 93.1719C238.625 93.1719 240.383 93.5 241.898 94.1562C243.43 94.7969 244.711 95.6953 245.742 96.8516C246.773 98.0078 247.555 99.375 248.086 100.953C248.617 102.516 248.883 104.227 248.883 106.086V106.578C248.883 108.422 248.617 110.133 248.086 111.711C247.555 113.273 246.773 114.641 245.742 115.812C244.711 116.969 243.438 117.867 241.922 118.508C240.406 119.148 238.656 119.469 236.672 119.469C234.688 119.469 232.93 119.148 231.398 118.508C229.867 117.867 228.586 116.969 227.555 115.812C226.523 114.641 225.742 113.273 225.211 111.711C224.68 110.133 224.414 108.422 224.414 106.578ZM232.312 106.086V106.578C232.312 107.531 232.383 108.422 232.523 109.25C232.664 110.078 232.898 110.805 233.227 111.43C233.555 112.039 234 112.516 234.562 112.859C235.125 113.203 235.828 113.375 236.672 113.375C237.5 113.375 238.188 113.203 238.734 112.859C239.297 112.516 239.742 112.039 240.07 111.43C240.398 110.805 240.633 110.078 240.773 109.25C240.914 108.422 240.984 107.531 240.984 106.578V106.086C240.984 105.164 240.914 104.297 240.773 103.484C240.633 102.656 240.398 101.93 240.07 101.305C239.742 100.664 239.297 100.164 238.734 99.8047C238.172 99.4453 237.469 99.2656 236.625 99.2656C235.797 99.2656 235.102 99.4453 234.539 99.8047C233.992 100.164 233.555 100.664 233.227 101.305C232.898 101.93 232.664 102.656 232.523 103.484C232.383 104.297 232.312 105.164 232.312 106.086ZM262.078 119H254.133V91.5781C254.133 89.6094 254.531 87.9531 255.328 86.6094C256.125 85.2656 257.25 84.25 258.703 83.5625C260.156 82.8594 261.875 82.5078 263.859 82.5078C264.547 82.5078 265.195 82.5547 265.805 82.6484C266.414 82.7422 267.008 82.8594 267.586 83L267.609 88.8125C267.328 88.7344 267.039 88.6797 266.742 88.6484C266.445 88.6172 266.078 88.6016 265.641 88.6016C264.875 88.6016 264.227 88.7188 263.695 88.9531C263.164 89.1719 262.758 89.5078 262.477 89.9609C262.211 90.3984 262.078 90.9375 262.078 91.5781V119ZM267 93.6406V99.125H250.477V93.6406H267ZM301.57 107.445H309.773C309.664 109.82 309.023 111.914 307.852 113.727C306.68 115.539 305.055 116.953 302.977 117.969C300.914 118.969 298.477 119.469 295.664 119.469C293.383 119.469 291.344 119.086 289.547 118.32C287.766 117.555 286.25 116.453 285 115.016C283.766 113.578 282.82 111.836 282.164 109.789C281.523 107.742 281.203 105.438 281.203 102.875V101.023C281.203 98.4609 281.539 96.1562 282.211 94.1094C282.898 92.0469 283.867 90.2969 285.117 88.8594C286.383 87.4062 287.898 86.2969 289.664 85.5312C291.43 84.7656 293.391 84.3828 295.547 84.3828C298.516 84.3828 301.023 84.9141 303.07 85.9766C305.117 87.0391 306.703 88.5 307.828 90.3594C308.953 92.2031 309.617 94.3047 309.82 96.6641H301.617C301.586 95.3828 301.367 94.3125 300.961 93.4531C300.555 92.5781 299.914 91.9219 299.039 91.4844C298.164 91.0469 297 90.8281 295.547 90.8281C294.531 90.8281 293.648 91.0156 292.898 91.3906C292.148 91.7656 291.523 92.3594 291.023 93.1719C290.523 93.9844 290.148 95.0391 289.898 96.3359C289.664 97.6172 289.547 99.1641 289.547 100.977V102.875C289.547 104.688 289.656 106.234 289.875 107.516C290.094 108.797 290.445 109.844 290.93 110.656C291.414 111.469 292.039 112.07 292.805 112.461C293.586 112.836 294.539 113.023 295.664 113.023C296.914 113.023 297.969 112.828 298.828 112.438C299.688 112.031 300.352 111.422 300.82 110.609C301.289 109.781 301.539 108.727 301.57 107.445ZM312.305 106.578V106.086C312.305 104.227 312.57 102.516 313.102 100.953C313.633 99.375 314.414 98.0078 315.445 96.8516C316.477 95.6953 317.75 94.7969 319.266 94.1562C320.781 93.5 322.531 93.1719 324.516 93.1719C326.516 93.1719 328.273 93.5 329.789 94.1562C331.32 94.7969 332.602 95.6953 333.633 96.8516C334.664 98.0078 335.445 99.375 335.977 100.953C336.508 102.516 336.773 104.227 336.773 106.086V106.578C336.773 108.422 336.508 110.133 335.977 111.711C335.445 113.273 334.664 114.641 333.633 115.812C332.602 116.969 331.328 117.867 329.812 118.508C328.297 119.148 326.547 119.469 324.562 119.469C322.578 119.469 320.82 119.148 319.289 118.508C317.758 117.867 316.477 116.969 315.445 115.812C314.414 114.641 313.633 113.273 313.102 111.711C312.57 110.133 312.305 108.422 312.305 106.578ZM320.203 106.086V106.578C320.203 107.531 320.273 108.422 320.414 109.25C320.555 110.078 320.789 110.805 321.117 111.43C321.445 112.039 321.891 112.516 322.453 112.859C323.016 113.203 323.719 113.375 324.562 113.375C325.391 113.375 326.078 113.203 326.625 112.859C327.188 112.516 327.633 112.039 327.961 111.43C328.289 110.805 328.523 110.078 328.664 109.25C328.805 108.422 328.875 107.531 328.875 106.578V106.086C328.875 105.164 328.805 104.297 328.664 103.484C328.523 102.656 328.289 101.93 327.961 101.305C327.633 100.664 327.188 100.164 326.625 99.8047C326.062 99.4453 325.359 99.2656 324.516 99.2656C323.688 99.2656 322.992 99.4453 322.43 99.8047C321.883 100.164 321.445 100.664 321.117 101.305C320.789 101.93 320.555 102.656 320.414 103.484C320.273 104.297 320.203 105.164 320.203 106.086ZM348.047 99.0547V119H340.148V93.6406H347.555L348.047 99.0547ZM347.109 105.453L345.258 105.5C345.258 103.562 345.492 101.836 345.961 100.32C346.43 98.7891 347.094 97.4922 347.953 96.4297C348.812 95.3672 349.836 94.5625 351.023 94.0156C352.227 93.4531 353.562 93.1719 355.031 93.1719C356.203 93.1719 357.273 93.3438 358.242 93.6875C359.227 94.0312 360.07 94.5859 360.773 95.3516C361.492 96.1172 362.039 97.1328 362.414 98.3984C362.805 99.6484 363 101.195 363 103.039V119H355.055V103.016C355.055 102 354.914 101.227 354.633 100.695C354.352 100.148 353.945 99.7734 353.414 99.5703C352.883 99.3672 352.234 99.2656 351.469 99.2656C350.656 99.2656 349.969 99.4219 349.406 99.7344C348.844 100.047 348.391 100.484 348.047 101.047C347.719 101.594 347.477 102.242 347.32 102.992C347.18 103.742 347.109 104.562 347.109 105.453ZM380.742 93.6406V99.125H365.461V93.6406H380.742ZM368.672 87.3359H376.57V110.727C376.57 111.398 376.648 111.922 376.805 112.297C376.961 112.656 377.227 112.914 377.602 113.07C377.992 113.211 378.508 113.281 379.148 113.281C379.602 113.281 379.977 113.273 380.273 113.258C380.57 113.227 380.852 113.188 381.117 113.141V118.789C380.445 119.008 379.742 119.172 379.008 119.281C378.273 119.406 377.492 119.469 376.664 119.469C374.977 119.469 373.531 119.203 372.328 118.672C371.141 118.141 370.234 117.305 369.609 116.164C368.984 115.023 368.672 113.539 368.672 111.711V87.3359ZM396.164 119.469C394.102 119.469 392.258 119.148 390.633 118.508C389.008 117.852 387.633 116.953 386.508 115.812C385.398 114.672 384.547 113.359 383.953 111.875C383.375 110.391 383.086 108.82 383.086 107.164V106.273C383.086 104.414 383.344 102.695 383.859 101.117C384.375 99.5234 385.141 98.1328 386.156 96.9453C387.172 95.7578 388.445 94.8359 389.977 94.1797C391.508 93.5078 393.289 93.1719 395.32 93.1719C397.117 93.1719 398.727 93.4609 400.148 94.0391C401.57 94.6172 402.773 95.4453 403.758 96.5234C404.758 97.6016 405.516 98.9062 406.031 100.438C406.562 101.969 406.828 103.688 406.828 105.594V108.805H386.109V103.859H399.117V103.25C399.133 102.406 398.984 101.688 398.672 101.094C398.375 100.5 397.938 100.047 397.359 99.7344C396.781 99.4219 396.078 99.2656 395.25 99.2656C394.391 99.2656 393.68 99.4531 393.117 99.8281C392.57 100.203 392.141 100.719 391.828 101.375C391.531 102.016 391.32 102.758 391.195 103.602C391.07 104.445 391.008 105.336 391.008 106.273V107.164C391.008 108.102 391.133 108.953 391.383 109.719C391.648 110.484 392.023 111.141 392.508 111.688C393.008 112.219 393.602 112.633 394.289 112.93C394.992 113.227 395.789 113.375 396.68 113.375C397.758 113.375 398.82 113.172 399.867 112.766C400.914 112.359 401.812 111.688 402.562 110.75L406.148 115.016C405.633 115.75 404.898 116.461 403.945 117.148C403.008 117.836 401.883 118.398 400.57 118.836C399.258 119.258 397.789 119.469 396.164 119.469ZM417.797 99.0547V119H409.898V93.6406H417.305L417.797 99.0547ZM416.859 105.453L415.008 105.5C415.008 103.562 415.242 101.836 415.711 100.32C416.18 98.7891 416.844 97.4922 417.703 96.4297C418.562 95.3672 419.586 94.5625 420.773 94.0156C421.977 93.4531 423.312 93.1719 424.781 93.1719C425.953 93.1719 427.023 93.3438 427.992 93.6875C428.977 94.0312 429.82 94.5859 430.523 95.3516C431.242 96.1172 431.789 97.1328 432.164 98.3984C432.555 99.6484 432.75 101.195 432.75 103.039V119H424.805V103.016C424.805 102 424.664 101.227 424.383 100.695C424.102 100.148 423.695 99.7734 423.164 99.5703C422.633 99.3672 421.984 99.2656 421.219 99.2656C420.406 99.2656 419.719 99.4219 419.156 99.7344C418.594 100.047 418.141 100.484 417.797 101.047C417.469 101.594 417.227 102.242 417.07 102.992C416.93 103.742 416.859 104.562 416.859 105.453ZM450.492 93.6406V99.125H435.211V93.6406H450.492ZM438.422 87.3359H446.32V110.727C446.32 111.398 446.398 111.922 446.555 112.297C446.711 112.656 446.977 112.914 447.352 113.07C447.742 113.211 448.258 113.281 448.898 113.281C449.352 113.281 449.727 113.273 450.023 113.258C450.32 113.227 450.602 113.188 450.867 113.141V118.789C450.195 119.008 449.492 119.172 448.758 119.281C448.023 119.406 447.242 119.469 446.414 119.469C444.727 119.469 443.281 119.203 442.078 118.672C440.891 118.141 439.984 117.305 439.359 116.164C438.734 115.023 438.422 113.539 438.422 111.711V87.3359ZM466.922 111.875C466.922 111.438 466.773 111.062 466.477 110.75C466.195 110.422 465.695 110.125 464.977 109.859C464.258 109.578 463.25 109.297 461.953 109.016C460.719 108.75 459.555 108.398 458.461 107.961C457.383 107.523 456.438 106.992 455.625 106.367C454.812 105.742 454.172 105 453.703 104.141C453.25 103.281 453.023 102.297 453.023 101.188C453.023 100.109 453.25 99.0938 453.703 98.1406C454.172 97.1719 454.852 96.3203 455.742 95.5859C456.648 94.8359 457.75 94.25 459.047 93.8281C460.344 93.3906 461.82 93.1719 463.477 93.1719C465.758 93.1719 467.727 93.5234 469.383 94.2266C471.039 94.9141 472.312 95.8828 473.203 97.1328C474.109 98.3672 474.562 99.7969 474.562 101.422H466.664C466.664 100.781 466.555 100.234 466.336 99.7812C466.133 99.3281 465.797 98.9844 465.328 98.75C464.859 98.5 464.234 98.375 463.453 98.375C462.906 98.375 462.406 98.4766 461.953 98.6797C461.516 98.8828 461.164 99.1641 460.898 99.5234C460.633 99.8828 460.5 100.305 460.5 100.789C460.5 101.133 460.578 101.445 460.734 101.727C460.906 101.992 461.164 102.242 461.508 102.477C461.852 102.695 462.289 102.898 462.82 103.086C463.352 103.258 463.992 103.414 464.742 103.555C466.445 103.867 468.039 104.312 469.523 104.891C471.008 105.469 472.211 106.289 473.133 107.352C474.07 108.414 474.539 109.844 474.539 111.641C474.539 112.766 474.281 113.805 473.766 114.758C473.25 115.695 472.508 116.523 471.539 117.242C470.57 117.945 469.406 118.492 468.047 118.883C466.688 119.273 465.156 119.469 463.453 119.469C461.031 119.469 458.984 119.039 457.312 118.18C455.641 117.305 454.375 116.211 453.516 114.898C452.672 113.57 452.25 112.227 452.25 110.867H459.609C459.641 111.648 459.828 112.289 460.172 112.789C460.531 113.289 461.008 113.656 461.602 113.891C462.195 114.125 462.883 114.242 463.664 114.242C464.383 114.242 464.977 114.141 465.445 113.938C465.93 113.734 466.297 113.461 466.547 113.117C466.797 112.758 466.922 112.344 466.922 111.875Z" fill="black"/>
<path d="M1134 0H1348C1356.28 0 1363 6.71573 1363 15V148C1363 156.284 1356.28 163 1348 163H1134V0Z" fill="#1D2D3B"/>
<path d="M1232.47 64.625C1232.47 63.9537 1232.74 63.3098 1233.21 62.8351C1233.68 62.3604 1234.33 62.0938 1235 62.0938H1262C1262.67 62.0938 1263.32 62.3604 1263.79 62.8351C1264.26 63.3098 1264.53 63.9537 1264.53 64.625C1264.53 65.2963 1264.26 65.9402 1263.79 66.4149C1263.32 66.8896 1262.67 67.1562 1262 67.1562H1235C1234.33 67.1562 1233.68 66.8896 1233.21 66.4149C1232.74 65.9402 1232.47 65.2963 1232.47 64.625ZM1235 73.9062C1234.33 73.9062 1233.68 74.1729 1233.21 74.6476C1232.74 75.1223 1232.47 75.7662 1232.47 76.4375C1232.47 77.1088 1232.74 77.7527 1233.21 78.2274C1233.68 78.7021 1234.33 78.9688 1235 78.9688H1251.88C1252.55 78.9688 1253.19 78.7021 1253.66 78.2274C1254.14 77.7527 1254.41 77.1088 1254.41 76.4375C1254.41 75.7662 1254.14 75.1223 1253.66 74.6476C1253.19 74.1729 1252.55 73.9062 1251.88 73.9062H1235Z" fill="white"/>
<path fill-rule="evenodd" clip-rule="evenodd" d="M1241.56 45.2188C1236.95 45.2188 1233.23 45.2187 1230.3 45.6136C1227.26 46.0186 1224.71 46.8961 1222.67 48.9245C1220.64 50.9563 1219.77 53.5145 1219.36 56.552C1218.97 59.4781 1218.97 63.2008 1218.97 67.8144V95.1856C1218.97 99.7993 1218.97 103.522 1219.36 106.448C1219.77 109.486 1220.65 112.044 1222.67 114.076C1224.71 116.107 1227.26 116.978 1230.3 117.39C1233.23 117.781 1236.95 117.781 1241.56 117.781H1255.44C1260.05 117.781 1263.77 117.781 1266.7 117.39C1269.74 116.978 1272.29 116.107 1274.33 114.076C1276.36 112.044 1277.23 109.486 1277.64 106.448C1278.03 103.522 1278.03 99.7993 1278.03 95.1856V67.8144C1278.03 63.2008 1278.03 59.4781 1277.64 56.552C1277.23 53.5145 1276.36 50.9563 1274.33 48.9245C1272.29 46.8928 1269.74 46.022 1266.7 45.6136C1263.77 45.2187 1260.05 45.2188 1255.44 45.2188H1241.56ZM1226.26 52.5054C1227.19 51.5705 1228.5 50.963 1230.98 50.6289C1233.53 50.288 1236.91 50.2812 1241.75 50.2812H1255.25C1260.1 50.2812 1263.47 50.288 1266.03 50.6289C1268.5 50.963 1269.81 51.5739 1270.75 52.5054C1271.68 53.4402 1272.29 54.7498 1272.62 57.2304C1272.97 59.7751 1272.97 63.1569 1272.97 68V92.4688H1234.26C1231.5 92.4688 1229.62 92.4688 1228 92.9007C1226.58 93.2815 1225.24 93.9074 1224.03 94.7502V68C1224.03 63.1569 1224.04 59.7751 1224.38 57.227C1224.71 54.7498 1225.33 53.4402 1226.26 52.5054ZM1224.13 102.59C1224.18 103.785 1224.26 104.835 1224.38 105.773C1224.72 108.25 1225.33 109.56 1226.26 110.495C1227.19 111.429 1228.5 112.037 1230.98 112.371C1233.53 112.712 1236.91 112.719 1241.75 112.719H1255.25C1260.1 112.719 1263.47 112.712 1266.03 112.371C1268.5 112.037 1269.81 111.426 1270.75 110.495C1271.68 109.56 1272.29 108.25 1272.62 105.77C1272.9 103.694 1272.96 101.062 1272.97 97.5312H1234.66C1231.35 97.5312 1230.2 97.5515 1229.31 97.7911C1228.12 98.1102 1227.03 98.7138 1226.13 99.5499C1225.22 100.386 1224.54 101.429 1224.13 102.59Z" fill="white"/>
</svg>
