<svg width="1363" height="163" viewBox="0 0 1363 163" fill="none" xmlns="http://www.w3.org/2000/svg">
<path d="M0 15C0 6.71573 6.71573 0 15 0H37V163H15C6.71573 163 0 156.284 0 148V15Z" fill="#424242"/>
<rect width="1097" height="163" transform="translate(37)" fill="#F0F0F0"/>
<path d="M101.906 53.9219L94.3945 51.2383V48.0859L104.602 52.375V54.6367L101.906 53.9219ZM94.3945 56.1719L101.918 53.4297L104.602 52.7852V55.0352L94.3945 59.3242V56.1719ZM123.867 58.2578V61H115.277V58.2578H123.867ZM116.414 43.9375V61H112.898V43.9375H116.414ZM129.234 48.3203V61H125.848V48.3203H129.234ZM125.637 45.0156C125.637 44.5234 125.809 44.1172 126.152 43.7969C126.496 43.4766 126.957 43.3164 127.535 43.3164C128.105 43.3164 128.562 43.4766 128.906 43.7969C129.258 44.1172 129.434 44.5234 129.434 45.0156C129.434 45.5078 129.258 45.9141 128.906 46.2344C128.562 46.5547 128.105 46.7148 127.535 46.7148C126.957 46.7148 126.496 46.5547 126.152 46.2344C125.809 45.9141 125.637 45.5078 125.637 45.0156ZM142.125 55.3398H145.629C145.559 56.4883 145.242 57.5078 144.68 58.3984C144.125 59.2891 143.348 59.9844 142.348 60.4844C141.355 60.9844 140.16 61.2344 138.762 61.2344C137.668 61.2344 136.688 61.0469 135.82 60.6719C134.953 60.2891 134.211 59.7422 133.594 59.0312C132.984 58.3203 132.52 57.4609 132.199 56.4531C131.879 55.4453 131.719 54.3164 131.719 53.0664V51.8828C131.719 50.6328 131.883 49.5039 132.211 48.4961C132.547 47.4805 133.023 46.6172 133.641 45.9062C134.266 45.1953 135.012 44.6484 135.879 44.2656C136.746 43.8828 137.715 43.6914 138.785 43.6914C140.207 43.6914 141.406 43.9492 142.383 44.4648C143.367 44.9805 144.129 45.6914 144.668 46.5977C145.215 47.5039 145.543 48.5352 145.652 49.6914H142.137C142.098 49.0039 141.961 48.4219 141.727 47.9453C141.492 47.4609 141.137 47.0977 140.66 46.8555C140.191 46.6055 139.566 46.4805 138.785 46.4805C138.199 46.4805 137.688 46.5898 137.25 46.8086C136.812 47.0273 136.445 47.3594 136.148 47.8047C135.852 48.25 135.629 48.8125 135.48 49.4922C135.34 50.1641 135.27 50.9531 135.27 51.8594V53.0664C135.27 53.9492 135.336 54.7266 135.469 55.3984C135.602 56.0625 135.805 56.625 136.078 57.0859C136.359 57.5391 136.719 57.8828 137.156 58.1172C137.602 58.3438 138.137 58.457 138.762 58.457C139.496 58.457 140.102 58.3398 140.578 58.1055C141.055 57.8711 141.418 57.5234 141.668 57.0625C141.926 56.6016 142.078 56.0273 142.125 55.3398ZM153.562 61.2344C152.578 61.2344 151.695 61.0781 150.914 60.7656C150.133 60.4453 149.469 60.0039 148.922 59.4414C148.383 58.8789 147.969 58.2266 147.68 57.4844C147.391 56.7344 147.246 55.9375 147.246 55.0938V54.625C147.246 53.6641 147.383 52.7852 147.656 51.9883C147.93 51.1914 148.32 50.5 148.828 49.9141C149.344 49.3281 149.969 48.8789 150.703 48.5664C151.438 48.2461 152.266 48.0859 153.188 48.0859C154.086 48.0859 154.883 48.2344 155.578 48.5312C156.273 48.8281 156.855 49.25 157.324 49.7969C157.801 50.3438 158.16 51 158.402 51.7656C158.645 52.5234 158.766 53.3672 158.766 54.2969V55.7031H148.688V53.4531H155.449V53.1953C155.449 52.7266 155.363 52.3086 155.191 51.9414C155.027 51.5664 154.777 51.2695 154.441 51.0508C154.105 50.832 153.676 50.7227 153.152 50.7227C152.707 50.7227 152.324 50.8203 152.004 51.0156C151.684 51.2109 151.422 51.4844 151.219 51.8359C151.023 52.1875 150.875 52.6016 150.773 53.0781C150.68 53.5469 150.633 54.0625 150.633 54.625V55.0938C150.633 55.6016 150.703 56.0703 150.844 56.5C150.992 56.9297 151.199 57.3008 151.465 57.6133C151.738 57.9258 152.066 58.168 152.449 58.3398C152.84 58.5117 153.281 58.5977 153.773 58.5977C154.383 58.5977 154.949 58.4805 155.473 58.2461C156.004 58.0039 156.461 57.6406 156.844 57.1562L158.484 58.9375C158.219 59.3203 157.855 59.6875 157.395 60.0391C156.941 60.3906 156.395 60.6797 155.754 60.9062C155.113 61.125 154.383 61.2344 153.562 61.2344ZM167.543 57.4961C167.543 57.2539 167.473 57.0352 167.332 56.8398C167.191 56.6445 166.93 56.4648 166.547 56.3008C166.172 56.1289 165.629 55.9727 164.918 55.832C164.277 55.6914 163.68 55.5156 163.125 55.3047C162.578 55.0859 162.102 54.8242 161.695 54.5195C161.297 54.2148 160.984 53.8555 160.758 53.4414C160.531 53.0195 160.418 52.5391 160.418 52C160.418 51.4688 160.531 50.9688 160.758 50.5C160.992 50.0312 161.324 49.6172 161.754 49.2578C162.191 48.8906 162.723 48.6055 163.348 48.4023C163.98 48.1914 164.691 48.0859 165.48 48.0859C166.582 48.0859 167.527 48.2617 168.316 48.6133C169.113 48.9648 169.723 49.4492 170.145 50.0664C170.574 50.6758 170.789 51.3711 170.789 52.1523H167.414C167.414 51.8242 167.344 51.5312 167.203 51.2734C167.07 51.0078 166.859 50.8008 166.57 50.6523C166.289 50.4961 165.922 50.418 165.469 50.418C165.094 50.418 164.77 50.4844 164.496 50.6172C164.223 50.7422 164.012 50.9141 163.863 51.1328C163.723 51.3438 163.652 51.5781 163.652 51.8359C163.652 52.0312 163.691 52.207 163.77 52.3633C163.855 52.5117 163.992 52.6484 164.18 52.7734C164.367 52.8984 164.609 53.0156 164.906 53.125C165.211 53.2266 165.586 53.3203 166.031 53.4062C166.945 53.5938 167.762 53.8398 168.48 54.1445C169.199 54.4414 169.77 54.8477 170.191 55.3633C170.613 55.8711 170.824 56.5391 170.824 57.3672C170.824 57.9297 170.699 58.4453 170.449 58.9141C170.199 59.3828 169.84 59.793 169.371 60.1445C168.902 60.4883 168.34 60.7578 167.684 60.9531C167.035 61.1406 166.305 61.2344 165.492 61.2344C164.312 61.2344 163.312 61.0234 162.492 60.6016C161.68 60.1797 161.062 59.6445 160.641 58.9961C160.227 58.3398 160.02 57.668 160.02 56.9805H163.219C163.234 57.4414 163.352 57.8125 163.57 58.0938C163.797 58.375 164.082 58.5781 164.426 58.7031C164.777 58.8281 165.156 58.8906 165.562 58.8906C166 58.8906 166.363 58.832 166.652 58.7148C166.941 58.5898 167.16 58.4258 167.309 58.2227C167.465 58.0117 167.543 57.7695 167.543 57.4961ZM179.871 57.4961C179.871 57.2539 179.801 57.0352 179.66 56.8398C179.52 56.6445 179.258 56.4648 178.875 56.3008C178.5 56.1289 177.957 55.9727 177.246 55.832C176.605 55.6914 176.008 55.5156 175.453 55.3047C174.906 55.0859 174.43 54.8242 174.023 54.5195C173.625 54.2148 173.312 53.8555 173.086 53.4414C172.859 53.0195 172.746 52.5391 172.746 52C172.746 51.4688 172.859 50.9688 173.086 50.5C173.32 50.0312 173.652 49.6172 174.082 49.2578C174.52 48.8906 175.051 48.6055 175.676 48.4023C176.309 48.1914 177.02 48.0859 177.809 48.0859C178.91 48.0859 179.855 48.2617 180.645 48.6133C181.441 48.9648 182.051 49.4492 182.473 50.0664C182.902 50.6758 183.117 51.3711 183.117 52.1523H179.742C179.742 51.8242 179.672 51.5312 179.531 51.2734C179.398 51.0078 179.188 50.8008 178.898 50.6523C178.617 50.4961 178.25 50.418 177.797 50.418C177.422 50.418 177.098 50.4844 176.824 50.6172C176.551 50.7422 176.34 50.9141 176.191 51.1328C176.051 51.3438 175.98 51.5781 175.98 51.8359C175.98 52.0312 176.02 52.207 176.098 52.3633C176.184 52.5117 176.32 52.6484 176.508 52.7734C176.695 52.8984 176.938 53.0156 177.234 53.125C177.539 53.2266 177.914 53.3203 178.359 53.4062C179.273 53.5938 180.09 53.8398 180.809 54.1445C181.527 54.4414 182.098 54.8477 182.52 55.3633C182.941 55.8711 183.152 56.5391 183.152 57.3672C183.152 57.9297 183.027 58.4453 182.777 58.9141C182.527 59.3828 182.168 59.793 181.699 60.1445C181.23 60.4883 180.668 60.7578 180.012 60.9531C179.363 61.1406 178.633 61.2344 177.82 61.2344C176.641 61.2344 175.641 61.0234 174.82 60.6016C174.008 60.1797 173.391 59.6445 172.969 58.9961C172.555 58.3398 172.348 57.668 172.348 56.9805H175.547C175.562 57.4414 175.68 57.8125 175.898 58.0938C176.125 58.375 176.41 58.5781 176.754 58.7031C177.105 58.8281 177.484 58.8906 177.891 58.8906C178.328 58.8906 178.691 58.832 178.98 58.7148C179.27 58.5898 179.488 58.4258 179.637 58.2227C179.793 58.0117 179.871 57.7695 179.871 57.4961Z" fill="#888888"/>
<path d="M112.125 84.875V119H103.898V84.875H112.125ZM122.391 84.875V91.2266H93.8672V84.875H122.391ZM135.68 119.469C133.617 119.469 131.773 119.148 130.148 118.508C128.523 117.852 127.148 116.953 126.023 115.812C124.914 114.672 124.062 113.359 123.469 111.875C122.891 110.391 122.602 108.82 122.602 107.164V106.273C122.602 104.414 122.859 102.695 123.375 101.117C123.891 99.5234 124.656 98.1328 125.672 96.9453C126.688 95.7578 127.961 94.8359 129.492 94.1797C131.023 93.5078 132.805 93.1719 134.836 93.1719C136.633 93.1719 138.242 93.4609 139.664 94.0391C141.086 94.6172 142.289 95.4453 143.273 96.5234C144.273 97.6016 145.031 98.9062 145.547 100.438C146.078 101.969 146.344 103.688 146.344 105.594V108.805H125.625V103.859H138.633V103.25C138.648 102.406 138.5 101.688 138.188 101.094C137.891 100.5 137.453 100.047 136.875 99.7344C136.297 99.4219 135.594 99.2656 134.766 99.2656C133.906 99.2656 133.195 99.4531 132.633 99.8281C132.086 100.203 131.656 100.719 131.344 101.375C131.047 102.016 130.836 102.758 130.711 103.602C130.586 104.445 130.523 105.336 130.523 106.273V107.164C130.523 108.102 130.648 108.953 130.898 109.719C131.164 110.484 131.539 111.141 132.023 111.688C132.523 112.219 133.117 112.633 133.805 112.93C134.508 113.227 135.305 113.375 136.195 113.375C137.273 113.375 138.336 113.172 139.383 112.766C140.43 112.359 141.328 111.688 142.078 110.75L145.664 115.016C145.148 115.75 144.414 116.461 143.461 117.148C142.523 117.836 141.398 118.398 140.086 118.836C138.773 119.258 137.305 119.469 135.68 119.469ZM160.266 113.375C161 113.375 161.625 113.242 162.141 112.977C162.672 112.695 163.07 112.305 163.336 111.805C163.617 111.289 163.75 110.672 163.734 109.953H171.164C171.18 111.859 170.711 113.531 169.758 114.969C168.82 116.391 167.539 117.5 165.914 118.297C164.305 119.078 162.484 119.469 160.453 119.469C158.469 119.469 156.734 119.148 155.25 118.508C153.766 117.852 152.523 116.945 151.523 115.789C150.539 114.617 149.797 113.25 149.297 111.688C148.812 110.125 148.57 108.43 148.57 106.602V106.062C148.57 104.234 148.812 102.539 149.297 100.977C149.797 99.3984 150.539 98.0312 151.523 96.875C152.523 95.7031 153.758 94.7969 155.227 94.1562C156.711 93.5 158.438 93.1719 160.406 93.1719C162.516 93.1719 164.375 93.5703 165.984 94.3672C167.609 95.1641 168.883 96.3203 169.805 97.8359C170.727 99.3516 171.18 101.188 171.164 103.344H163.734C163.75 102.578 163.633 101.891 163.383 101.281C163.133 100.672 162.742 100.188 162.211 99.8281C161.695 99.4531 161.031 99.2656 160.219 99.2656C159.406 99.2656 158.75 99.4453 158.25 99.8047C157.75 100.164 157.367 100.664 157.102 101.305C156.852 101.93 156.68 102.648 156.586 103.461C156.508 104.273 156.469 105.141 156.469 106.062V106.602C156.469 107.539 156.508 108.422 156.586 109.25C156.68 110.062 156.859 110.781 157.125 111.406C157.391 112.016 157.773 112.5 158.273 112.859C158.773 113.203 159.438 113.375 160.266 113.375ZM182.273 83V119H174.375V83H182.273ZM181.336 105.453L179.484 105.5C179.484 103.719 179.703 102.078 180.141 100.578C180.578 99.0781 181.203 97.7734 182.016 96.6641C182.828 95.5547 183.805 94.6953 184.945 94.0859C186.086 93.4766 187.352 93.1719 188.742 93.1719C189.992 93.1719 191.133 93.3516 192.164 93.7109C193.211 94.0703 194.109 94.6484 194.859 95.4453C195.625 96.2422 196.211 97.2812 196.617 98.5625C197.039 99.8438 197.25 101.406 197.25 103.25V119H189.305V103.203C189.305 102.172 189.156 101.375 188.859 100.812C188.578 100.234 188.172 99.8359 187.641 99.6172C187.109 99.3828 186.461 99.2656 185.695 99.2656C184.773 99.2656 184.023 99.4219 183.445 99.7344C182.867 100.047 182.422 100.484 182.109 101.047C181.812 101.594 181.609 102.242 181.5 102.992C181.391 103.742 181.336 104.562 181.336 105.453ZM231.539 109.93C231.539 109.398 231.461 108.922 231.305 108.5C231.148 108.062 230.859 107.656 230.438 107.281C230.016 106.906 229.406 106.531 228.609 106.156C227.828 105.766 226.797 105.359 225.516 104.938C224.016 104.438 222.57 103.875 221.18 103.25C219.789 102.609 218.547 101.867 217.453 101.023C216.359 100.164 215.492 99.1641 214.852 98.0234C214.211 96.8672 213.891 95.5234 213.891 93.9922C213.891 92.5234 214.219 91.2031 214.875 90.0312C215.531 88.8438 216.445 87.8359 217.617 87.0078C218.805 86.1641 220.195 85.5234 221.789 85.0859C223.383 84.6328 225.125 84.4062 227.016 84.4062C229.516 84.4062 231.719 84.8438 233.625 85.7188C235.547 86.5781 237.047 87.8047 238.125 89.3984C239.219 90.9766 239.766 92.8438 239.766 95H231.586C231.586 94.1406 231.406 93.3828 231.047 92.7266C230.703 92.0703 230.18 91.5547 229.477 91.1797C228.773 90.8047 227.891 90.6172 226.828 90.6172C225.797 90.6172 224.93 90.7734 224.227 91.0859C223.523 91.3984 222.992 91.8203 222.633 92.3516C222.273 92.8672 222.094 93.4375 222.094 94.0625C222.094 94.5781 222.234 95.0469 222.516 95.4688C222.812 95.875 223.227 96.2578 223.758 96.6172C224.305 96.9766 224.961 97.3203 225.727 97.6484C226.508 97.9766 227.383 98.2969 228.352 98.6094C230.164 99.1875 231.773 99.8359 233.18 100.555C234.602 101.258 235.797 102.062 236.766 102.969C237.75 103.859 238.492 104.875 238.992 106.016C239.508 107.156 239.766 108.445 239.766 109.883C239.766 111.414 239.469 112.773 238.875 113.961C238.281 115.148 237.43 116.156 236.32 116.984C235.211 117.797 233.883 118.414 232.336 118.836C230.789 119.258 229.062 119.469 227.156 119.469C225.406 119.469 223.68 119.25 221.977 118.812C220.289 118.359 218.758 117.672 217.383 116.75C216.008 115.812 214.906 114.617 214.078 113.164C213.266 111.695 212.859 109.953 212.859 107.938H221.109C221.109 108.938 221.242 109.781 221.508 110.469C221.773 111.156 222.164 111.711 222.68 112.133C223.195 112.539 223.828 112.836 224.578 113.023C225.328 113.195 226.188 113.281 227.156 113.281C228.203 113.281 229.047 113.133 229.688 112.836C230.328 112.523 230.797 112.117 231.094 111.617C231.391 111.102 231.539 110.539 231.539 109.93ZM256.992 93.6406V99.125H241.711V93.6406H256.992ZM244.922 87.3359H252.82V110.727C252.82 111.398 252.898 111.922 253.055 112.297C253.211 112.656 253.477 112.914 253.852 113.07C254.242 113.211 254.758 113.281 255.398 113.281C255.852 113.281 256.227 113.273 256.523 113.258C256.82 113.227 257.102 113.188 257.367 113.141V118.789C256.695 119.008 255.992 119.172 255.258 119.281C254.523 119.406 253.742 119.469 252.914 119.469C251.227 119.469 249.781 119.203 248.578 118.672C247.391 118.141 246.484 117.305 245.859 116.164C245.234 115.023 244.922 113.539 244.922 111.711V87.3359ZM273.305 112.625V102.172C273.305 101.453 273.203 100.836 273 100.32C272.797 99.8047 272.477 99.4062 272.039 99.125C271.602 98.8281 271.016 98.6797 270.281 98.6797C269.688 98.6797 269.18 98.7812 268.758 98.9844C268.336 99.1875 268.016 99.4922 267.797 99.8984C267.578 100.305 267.469 100.82 267.469 101.445H259.57C259.57 100.273 259.828 99.1875 260.344 98.1875C260.875 97.1719 261.625 96.2891 262.594 95.5391C263.578 94.7891 264.75 94.2109 266.109 93.8047C267.484 93.3828 269.016 93.1719 270.703 93.1719C272.719 93.1719 274.516 93.5078 276.094 94.1797C277.688 94.8516 278.945 95.8594 279.867 97.2031C280.789 98.5312 281.25 100.203 281.25 102.219V112.602C281.25 114.258 281.344 115.516 281.531 116.375C281.719 117.219 281.984 117.961 282.328 118.602V119H274.406C274.031 118.219 273.75 117.266 273.562 116.141C273.391 115 273.305 113.828 273.305 112.625ZM274.266 103.508L274.312 107.727H270.82C270.086 107.727 269.461 107.828 268.945 108.031C268.445 108.234 268.039 108.516 267.727 108.875C267.43 109.219 267.211 109.609 267.07 110.047C266.945 110.484 266.883 110.945 266.883 111.43C266.883 111.898 266.992 112.32 267.211 112.695C267.445 113.055 267.758 113.336 268.148 113.539C268.539 113.742 268.977 113.844 269.461 113.844C270.336 113.844 271.078 113.68 271.688 113.352C272.312 113.008 272.789 112.594 273.117 112.109C273.445 111.625 273.609 111.172 273.609 110.75L275.344 113.984C275.031 114.609 274.672 115.242 274.266 115.883C273.875 116.523 273.383 117.117 272.789 117.664C272.211 118.195 271.5 118.633 270.656 118.977C269.812 119.305 268.789 119.469 267.586 119.469C266.023 119.469 264.586 119.148 263.273 118.508C261.977 117.867 260.938 116.977 260.156 115.836C259.375 114.68 258.984 113.352 258.984 111.852C258.984 110.539 259.219 109.367 259.688 108.336C260.172 107.305 260.898 106.43 261.867 105.711C262.836 104.992 264.07 104.445 265.57 104.07C267.07 103.695 268.836 103.508 270.867 103.508H274.266ZM296.344 113.375C297.078 113.375 297.703 113.242 298.219 112.977C298.75 112.695 299.148 112.305 299.414 111.805C299.695 111.289 299.828 110.672 299.812 109.953H307.242C307.258 111.859 306.789 113.531 305.836 114.969C304.898 116.391 303.617 117.5 301.992 118.297C300.383 119.078 298.562 119.469 296.531 119.469C294.547 119.469 292.812 119.148 291.328 118.508C289.844 117.852 288.602 116.945 287.602 115.789C286.617 114.617 285.875 113.25 285.375 111.688C284.891 110.125 284.648 108.43 284.648 106.602V106.062C284.648 104.234 284.891 102.539 285.375 100.977C285.875 99.3984 286.617 98.0312 287.602 96.875C288.602 95.7031 289.836 94.7969 291.305 94.1562C292.789 93.5 294.516 93.1719 296.484 93.1719C298.594 93.1719 300.453 93.5703 302.062 94.3672C303.688 95.1641 304.961 96.3203 305.883 97.8359C306.805 99.3516 307.258 101.188 307.242 103.344H299.812C299.828 102.578 299.711 101.891 299.461 101.281C299.211 100.672 298.82 100.188 298.289 99.8281C297.773 99.4531 297.109 99.2656 296.297 99.2656C295.484 99.2656 294.828 99.4453 294.328 99.8047C293.828 100.164 293.445 100.664 293.18 101.305C292.93 101.93 292.758 102.648 292.664 103.461C292.586 104.273 292.547 105.141 292.547 106.062V106.602C292.547 107.539 292.586 108.422 292.664 109.25C292.758 110.062 292.938 110.781 293.203 111.406C293.469 112.016 293.852 112.5 294.352 112.859C294.852 113.203 295.516 113.375 296.344 113.375ZM318.586 82.9766V119H310.688V82.9766H318.586ZM334.805 93.6406L323.789 106.555L318.023 112.32L314.578 107.305L319.383 101.047L325.336 93.6406H334.805ZM326.344 119L319.57 107.445L325.406 103.297L335.391 119H326.344Z" fill="black"/>
<path d="M1134 0H1348C1356.28 0 1363 6.71573 1363 15V148C1363 156.284 1356.28 163 1348 163H1134V0Z" fill="#1D2D3B"/>
<path fill-rule="evenodd" clip-rule="evenodd" d="M1218.75 53C1218.62 53 1218.49 53.0527 1218.4 53.1464C1218.3 53.2402 1218.25 53.3674 1218.25 53.5V109.5C1218.25 109.633 1218.3 109.76 1218.4 109.854C1218.49 109.947 1218.62 110 1218.75 110H1278.25C1278.38 110 1278.51 109.947 1278.6 109.854C1278.7 109.76 1278.75 109.633 1278.75 109.5V64C1278.75 63.8674 1278.7 63.7402 1278.6 63.6464C1278.51 63.5527 1278.38 63.5 1278.25 63.5H1248.5C1247.61 63.5 1246.77 63.1045 1246.2 62.4206L1238.34 53H1218.75ZM1214.15 48.9038C1215.37 47.6848 1217.03 47 1218.75 47H1239.75C1240.64 47 1241.48 47.3955 1242.05 48.0794L1249.91 57.5H1278.25C1279.97 57.5 1281.63 58.1848 1282.85 59.4038C1284.07 60.6228 1284.75 62.2761 1284.75 64V109.5C1284.75 111.224 1284.07 112.877 1282.85 114.096C1281.63 115.315 1279.97 116 1278.25 116H1218.75C1217.03 116 1215.37 115.315 1214.15 114.096C1212.93 112.877 1212.25 111.224 1212.25 109.5V53.5C1212.25 51.7761 1212.93 50.1228 1214.15 48.9038Z" fill="white"/>
<path fill-rule="evenodd" clip-rule="evenodd" d="M1243.97 75.5251C1245.34 76.892 1245.34 79.108 1243.97 80.4749L1237.7 86.75L1243.97 93.0251C1245.34 94.392 1245.34 96.608 1243.97 97.9749C1242.61 99.3417 1240.39 99.3417 1239.03 97.9749L1230.28 89.2249C1228.91 87.858 1228.91 85.642 1230.28 84.2751L1239.03 75.5251C1240.39 74.1583 1242.61 74.1583 1243.97 75.5251Z" fill="white"/>
<path fill-rule="evenodd" clip-rule="evenodd" d="M1252.28 97.9749C1250.91 96.608 1250.91 94.392 1252.28 93.0251L1258.55 86.75L1252.28 80.4749C1250.91 79.108 1250.91 76.892 1252.28 75.5251C1253.64 74.1583 1255.86 74.1583 1257.22 75.5251L1265.97 84.2751C1267.34 85.642 1267.34 87.858 1265.97 89.2249L1257.22 97.9749C1255.86 99.3417 1253.64 99.3417 1252.28 97.9749Z" fill="white"/>
</svg>
