<svg width="1363" height="163" viewBox="0 0 1363 163" fill="none" xmlns="http://www.w3.org/2000/svg">
<path d="M0 15C0 6.71573 6.71573 0 15 0H37V163H15C6.71573 163 0 156.284 0 148V15Z" fill="#424242"/>
<rect width="1097" height="163" transform="translate(37)" fill="#F0F0F0"/>
<path d="M101.906 53.9219L94.3945 51.2383V48.0859L104.602 52.375V54.6367L101.906 53.9219ZM94.3945 56.1719L101.918 53.4297L104.602 52.7852V55.0352L94.3945 59.3242V56.1719ZM123.867 58.2578V61H115.277V58.2578H123.867ZM116.414 43.9375V61H112.898V43.9375H116.414ZM129.234 48.3203V61H125.848V48.3203H129.234ZM125.637 45.0156C125.637 44.5234 125.809 44.1172 126.152 43.7969C126.496 43.4766 126.957 43.3164 127.535 43.3164C128.105 43.3164 128.562 43.4766 128.906 43.7969C129.258 44.1172 129.434 44.5234 129.434 45.0156C129.434 45.5078 129.258 45.9141 128.906 46.2344C128.562 46.5547 128.105 46.7148 127.535 46.7148C126.957 46.7148 126.496 46.5547 126.152 46.2344C125.809 45.9141 125.637 45.5078 125.637 45.0156ZM142.125 55.3398H145.629C145.559 56.4883 145.242 57.5078 144.68 58.3984C144.125 59.2891 143.348 59.9844 142.348 60.4844C141.355 60.9844 140.16 61.2344 138.762 61.2344C137.668 61.2344 136.688 61.0469 135.82 60.6719C134.953 60.2891 134.211 59.7422 133.594 59.0312C132.984 58.3203 132.52 57.4609 132.199 56.4531C131.879 55.4453 131.719 54.3164 131.719 53.0664V51.8828C131.719 50.6328 131.883 49.5039 132.211 48.4961C132.547 47.4805 133.023 46.6172 133.641 45.9062C134.266 45.1953 135.012 44.6484 135.879 44.2656C136.746 43.8828 137.715 43.6914 138.785 43.6914C140.207 43.6914 141.406 43.9492 142.383 44.4648C143.367 44.9805 144.129 45.6914 144.668 46.5977C145.215 47.5039 145.543 48.5352 145.652 49.6914H142.137C142.098 49.0039 141.961 48.4219 141.727 47.9453C141.492 47.4609 141.137 47.0977 140.66 46.8555C140.191 46.6055 139.566 46.4805 138.785 46.4805C138.199 46.4805 137.688 46.5898 137.25 46.8086C136.812 47.0273 136.445 47.3594 136.148 47.8047C135.852 48.25 135.629 48.8125 135.48 49.4922C135.34 50.1641 135.27 50.9531 135.27 51.8594V53.0664C135.27 53.9492 135.336 54.7266 135.469 55.3984C135.602 56.0625 135.805 56.625 136.078 57.0859C136.359 57.5391 136.719 57.8828 137.156 58.1172C137.602 58.3438 138.137 58.457 138.762 58.457C139.496 58.457 140.102 58.3398 140.578 58.1055C141.055 57.8711 141.418 57.5234 141.668 57.0625C141.926 56.6016 142.078 56.0273 142.125 55.3398ZM153.562 61.2344C152.578 61.2344 151.695 61.0781 150.914 60.7656C150.133 60.4453 149.469 60.0039 148.922 59.4414C148.383 58.8789 147.969 58.2266 147.68 57.4844C147.391 56.7344 147.246 55.9375 147.246 55.0938V54.625C147.246 53.6641 147.383 52.7852 147.656 51.9883C147.93 51.1914 148.32 50.5 148.828 49.9141C149.344 49.3281 149.969 48.8789 150.703 48.5664C151.438 48.2461 152.266 48.0859 153.188 48.0859C154.086 48.0859 154.883 48.2344 155.578 48.5312C156.273 48.8281 156.855 49.25 157.324 49.7969C157.801 50.3438 158.16 51 158.402 51.7656C158.645 52.5234 158.766 53.3672 158.766 54.2969V55.7031H148.688V53.4531H155.449V53.1953C155.449 52.7266 155.363 52.3086 155.191 51.9414C155.027 51.5664 154.777 51.2695 154.441 51.0508C154.105 50.832 153.676 50.7227 153.152 50.7227C152.707 50.7227 152.324 50.8203 152.004 51.0156C151.684 51.2109 151.422 51.4844 151.219 51.8359C151.023 52.1875 150.875 52.6016 150.773 53.0781C150.68 53.5469 150.633 54.0625 150.633 54.625V55.0938C150.633 55.6016 150.703 56.0703 150.844 56.5C150.992 56.9297 151.199 57.3008 151.465 57.6133C151.738 57.9258 152.066 58.168 152.449 58.3398C152.84 58.5117 153.281 58.5977 153.773 58.5977C154.383 58.5977 154.949 58.4805 155.473 58.2461C156.004 58.0039 156.461 57.6406 156.844 57.1562L158.484 58.9375C158.219 59.3203 157.855 59.6875 157.395 60.0391C156.941 60.3906 156.395 60.6797 155.754 60.9062C155.113 61.125 154.383 61.2344 153.562 61.2344ZM167.543 57.4961C167.543 57.2539 167.473 57.0352 167.332 56.8398C167.191 56.6445 166.93 56.4648 166.547 56.3008C166.172 56.1289 165.629 55.9727 164.918 55.832C164.277 55.6914 163.68 55.5156 163.125 55.3047C162.578 55.0859 162.102 54.8242 161.695 54.5195C161.297 54.2148 160.984 53.8555 160.758 53.4414C160.531 53.0195 160.418 52.5391 160.418 52C160.418 51.4688 160.531 50.9688 160.758 50.5C160.992 50.0312 161.324 49.6172 161.754 49.2578C162.191 48.8906 162.723 48.6055 163.348 48.4023C163.98 48.1914 164.691 48.0859 165.48 48.0859C166.582 48.0859 167.527 48.2617 168.316 48.6133C169.113 48.9648 169.723 49.4492 170.145 50.0664C170.574 50.6758 170.789 51.3711 170.789 52.1523H167.414C167.414 51.8242 167.344 51.5312 167.203 51.2734C167.07 51.0078 166.859 50.8008 166.57 50.6523C166.289 50.4961 165.922 50.418 165.469 50.418C165.094 50.418 164.77 50.4844 164.496 50.6172C164.223 50.7422 164.012 50.9141 163.863 51.1328C163.723 51.3438 163.652 51.5781 163.652 51.8359C163.652 52.0312 163.691 52.207 163.77 52.3633C163.855 52.5117 163.992 52.6484 164.18 52.7734C164.367 52.8984 164.609 53.0156 164.906 53.125C165.211 53.2266 165.586 53.3203 166.031 53.4062C166.945 53.5938 167.762 53.8398 168.48 54.1445C169.199 54.4414 169.77 54.8477 170.191 55.3633C170.613 55.8711 170.824 56.5391 170.824 57.3672C170.824 57.9297 170.699 58.4453 170.449 58.9141C170.199 59.3828 169.84 59.793 169.371 60.1445C168.902 60.4883 168.34 60.7578 167.684 60.9531C167.035 61.1406 166.305 61.2344 165.492 61.2344C164.312 61.2344 163.312 61.0234 162.492 60.6016C161.68 60.1797 161.062 59.6445 160.641 58.9961C160.227 58.3398 160.02 57.668 160.02 56.9805H163.219C163.234 57.4414 163.352 57.8125 163.57 58.0938C163.797 58.375 164.082 58.5781 164.426 58.7031C164.777 58.8281 165.156 58.8906 165.562 58.8906C166 58.8906 166.363 58.832 166.652 58.7148C166.941 58.5898 167.16 58.4258 167.309 58.2227C167.465 58.0117 167.543 57.7695 167.543 57.4961ZM179.871 57.4961C179.871 57.2539 179.801 57.0352 179.66 56.8398C179.52 56.6445 179.258 56.4648 178.875 56.3008C178.5 56.1289 177.957 55.9727 177.246 55.832C176.605 55.6914 176.008 55.5156 175.453 55.3047C174.906 55.0859 174.43 54.8242 174.023 54.5195C173.625 54.2148 173.312 53.8555 173.086 53.4414C172.859 53.0195 172.746 52.5391 172.746 52C172.746 51.4688 172.859 50.9688 173.086 50.5C173.32 50.0312 173.652 49.6172 174.082 49.2578C174.52 48.8906 175.051 48.6055 175.676 48.4023C176.309 48.1914 177.02 48.0859 177.809 48.0859C178.91 48.0859 179.855 48.2617 180.645 48.6133C181.441 48.9648 182.051 49.4492 182.473 50.0664C182.902 50.6758 183.117 51.3711 183.117 52.1523H179.742C179.742 51.8242 179.672 51.5312 179.531 51.2734C179.398 51.0078 179.188 50.8008 178.898 50.6523C178.617 50.4961 178.25 50.418 177.797 50.418C177.422 50.418 177.098 50.4844 176.824 50.6172C176.551 50.7422 176.34 50.9141 176.191 51.1328C176.051 51.3438 175.98 51.5781 175.98 51.8359C175.98 52.0312 176.02 52.207 176.098 52.3633C176.184 52.5117 176.32 52.6484 176.508 52.7734C176.695 52.8984 176.938 53.0156 177.234 53.125C177.539 53.2266 177.914 53.3203 178.359 53.4062C179.273 53.5938 180.09 53.8398 180.809 54.1445C181.527 54.4414 182.098 54.8477 182.52 55.3633C182.941 55.8711 183.152 56.5391 183.152 57.3672C183.152 57.9297 183.027 58.4453 182.777 58.9141C182.527 59.3828 182.168 59.793 181.699 60.1445C181.23 60.4883 180.668 60.7578 180.012 60.9531C179.363 61.1406 178.633 61.2344 177.82 61.2344C176.641 61.2344 175.641 61.0234 174.82 60.6016C174.008 60.1797 173.391 59.6445 172.969 58.9961C172.555 58.3398 172.348 57.668 172.348 56.9805H175.547C175.562 57.4414 175.68 57.8125 175.898 58.0938C176.125 58.375 176.41 58.5781 176.754 58.7031C177.105 58.8281 177.484 58.8906 177.891 58.8906C178.328 58.8906 178.691 58.832 178.98 58.7148C179.27 58.5898 179.488 58.4258 179.637 58.2227C179.793 58.0117 179.871 57.7695 179.871 57.4961Z" fill="#888888"/>
<path d="M109.219 107.422H100.734V101.07H109.219C110.375 101.07 111.312 100.875 112.031 100.484C112.75 100.094 113.273 99.5547 113.602 98.8672C113.945 98.1641 114.117 97.375 114.117 96.5C114.117 95.5625 113.945 94.6953 113.602 93.8984C113.273 93.1016 112.75 92.4609 112.031 91.9766C111.312 91.4766 110.375 91.2266 109.219 91.2266H103.828V119H95.6016V84.875H109.219C111.953 84.875 114.305 85.375 116.273 86.375C118.258 87.375 119.781 88.75 120.844 90.5C121.906 92.2344 122.438 94.2188 122.438 96.4531C122.438 98.6562 121.906 100.578 120.844 102.219C119.781 103.859 118.258 105.141 116.273 106.062C114.305 106.969 111.953 107.422 109.219 107.422ZM138.445 119.469C136.383 119.469 134.539 119.148 132.914 118.508C131.289 117.852 129.914 116.953 128.789 115.812C127.68 114.672 126.828 113.359 126.234 111.875C125.656 110.391 125.367 108.82 125.367 107.164V106.273C125.367 104.414 125.625 102.695 126.141 101.117C126.656 99.5234 127.422 98.1328 128.438 96.9453C129.453 95.7578 130.727 94.8359 132.258 94.1797C133.789 93.5078 135.57 93.1719 137.602 93.1719C139.398 93.1719 141.008 93.4609 142.43 94.0391C143.852 94.6172 145.055 95.4453 146.039 96.5234C147.039 97.6016 147.797 98.9062 148.312 100.438C148.844 101.969 149.109 103.688 149.109 105.594V108.805H128.391V103.859H141.398V103.25C141.414 102.406 141.266 101.688 140.953 101.094C140.656 100.5 140.219 100.047 139.641 99.7344C139.062 99.4219 138.359 99.2656 137.531 99.2656C136.672 99.2656 135.961 99.4531 135.398 99.8281C134.852 100.203 134.422 100.719 134.109 101.375C133.812 102.016 133.602 102.758 133.477 103.602C133.352 104.445 133.289 105.336 133.289 106.273V107.164C133.289 108.102 133.414 108.953 133.664 109.719C133.93 110.484 134.305 111.141 134.789 111.688C135.289 112.219 135.883 112.633 136.57 112.93C137.273 113.227 138.07 113.375 138.961 113.375C140.039 113.375 141.102 113.172 142.148 112.766C143.195 112.359 144.094 111.688 144.844 110.75L148.43 115.016C147.914 115.75 147.18 116.461 146.227 117.148C145.289 117.836 144.164 118.398 142.852 118.836C141.539 119.258 140.07 119.469 138.445 119.469ZM160.289 99.9219V119H152.391V93.6406H159.773L160.289 99.9219ZM167.789 93.4531L167.648 100.789C167.336 100.758 166.914 100.719 166.383 100.672C165.852 100.625 165.406 100.602 165.047 100.602C164.125 100.602 163.328 100.711 162.656 100.93C162 101.133 161.453 101.445 161.016 101.867C160.594 102.273 160.281 102.789 160.078 103.414C159.891 104.039 159.805 104.766 159.82 105.594L158.391 104.656C158.391 102.953 158.555 101.406 158.883 100.016C159.227 98.6094 159.711 97.3984 160.336 96.3828C160.961 95.3516 161.719 94.5625 162.609 94.0156C163.5 93.4531 164.5 93.1719 165.609 93.1719C166 93.1719 166.383 93.1953 166.758 93.2422C167.148 93.2891 167.492 93.3594 167.789 93.4531ZM180.703 119H172.758V91.5781C172.758 89.6094 173.156 87.9531 173.953 86.6094C174.75 85.2656 175.875 84.25 177.328 83.5625C178.781 82.8594 180.5 82.5078 182.484 82.5078C183.172 82.5078 183.82 82.5547 184.43 82.6484C185.039 82.7422 185.633 82.8594 186.211 83L186.234 88.8125C185.953 88.7344 185.664 88.6797 185.367 88.6484C185.07 88.6172 184.703 88.6016 184.266 88.6016C183.5 88.6016 182.852 88.7188 182.32 88.9531C181.789 89.1719 181.383 89.5078 181.102 89.9609C180.836 90.3984 180.703 90.9375 180.703 91.5781V119ZM185.625 93.6406V99.125H169.102V93.6406H185.625ZM187.477 106.578V106.086C187.477 104.227 187.742 102.516 188.273 100.953C188.805 99.375 189.586 98.0078 190.617 96.8516C191.648 95.6953 192.922 94.7969 194.438 94.1562C195.953 93.5 197.703 93.1719 199.688 93.1719C201.688 93.1719 203.445 93.5 204.961 94.1562C206.492 94.7969 207.773 95.6953 208.805 96.8516C209.836 98.0078 210.617 99.375 211.148 100.953C211.68 102.516 211.945 104.227 211.945 106.086V106.578C211.945 108.422 211.68 110.133 211.148 111.711C210.617 113.273 209.836 114.641 208.805 115.812C207.773 116.969 206.5 117.867 204.984 118.508C203.469 119.148 201.719 119.469 199.734 119.469C197.75 119.469 195.992 119.148 194.461 118.508C192.93 117.867 191.648 116.969 190.617 115.812C189.586 114.641 188.805 113.273 188.273 111.711C187.742 110.133 187.477 108.422 187.477 106.578ZM195.375 106.086V106.578C195.375 107.531 195.445 108.422 195.586 109.25C195.727 110.078 195.961 110.805 196.289 111.43C196.617 112.039 197.062 112.516 197.625 112.859C198.188 113.203 198.891 113.375 199.734 113.375C200.562 113.375 201.25 113.203 201.797 112.859C202.359 112.516 202.805 112.039 203.133 111.43C203.461 110.805 203.695 110.078 203.836 109.25C203.977 108.422 204.047 107.531 204.047 106.578V106.086C204.047 105.164 203.977 104.297 203.836 103.484C203.695 102.656 203.461 101.93 203.133 101.305C202.805 100.664 202.359 100.164 201.797 99.8047C201.234 99.4453 200.531 99.2656 199.688 99.2656C198.859 99.2656 198.164 99.4453 197.602 99.8047C197.055 100.164 196.617 100.664 196.289 101.305C195.961 101.93 195.727 102.656 195.586 103.484C195.445 104.297 195.375 105.164 195.375 106.086ZM223.43 99.9219V119H215.531V93.6406H222.914L223.43 99.9219ZM230.93 93.4531L230.789 100.789C230.477 100.758 230.055 100.719 229.523 100.672C228.992 100.625 228.547 100.602 228.188 100.602C227.266 100.602 226.469 100.711 225.797 100.93C225.141 101.133 224.594 101.445 224.156 101.867C223.734 102.273 223.422 102.789 223.219 103.414C223.031 104.039 222.945 104.766 222.961 105.594L221.531 104.656C221.531 102.953 221.695 101.406 222.023 100.016C222.367 98.6094 222.852 97.3984 223.477 96.3828C224.102 95.3516 224.859 94.5625 225.75 94.0156C226.641 93.4531 227.641 93.1719 228.75 93.1719C229.141 93.1719 229.523 93.1953 229.898 93.2422C230.289 93.2891 230.633 93.3594 230.93 93.4531ZM241.617 99.0078V119H233.719V93.6406H241.125L241.617 99.0078ZM240.656 105.453L238.852 105.5C238.852 103.719 239.062 102.078 239.484 100.578C239.906 99.0781 240.531 97.7734 241.359 96.6641C242.188 95.5547 243.203 94.6953 244.406 94.0859C245.625 93.4766 247.031 93.1719 248.625 93.1719C249.734 93.1719 250.742 93.3438 251.648 93.6875C252.555 94.0156 253.336 94.5391 253.992 95.2578C254.648 95.9609 255.148 96.8828 255.492 98.0234C255.852 99.1484 256.031 100.5 256.031 102.078V119H248.133V103.086C248.133 102.008 248.008 101.195 247.758 100.648C247.523 100.102 247.18 99.7344 246.727 99.5469C246.273 99.3594 245.719 99.2656 245.062 99.2656C244.375 99.2656 243.758 99.4219 243.211 99.7344C242.664 100.047 242.195 100.484 241.805 101.047C241.43 101.594 241.141 102.242 240.938 102.992C240.75 103.742 240.656 104.562 240.656 105.453ZM255.141 105.453L252.938 105.5C252.938 103.719 253.133 102.078 253.523 100.578C253.93 99.0781 254.531 97.7734 255.328 96.6641C256.141 95.5547 257.148 94.6953 258.352 94.0859C259.555 93.4766 260.953 93.1719 262.547 93.1719C263.703 93.1719 264.766 93.3438 265.734 93.6875C266.703 94.0312 267.539 94.5859 268.242 95.3516C268.945 96.1172 269.492 97.1328 269.883 98.3984C270.273 99.6484 270.469 101.195 270.469 103.039V119H262.547V103.039C262.547 101.992 262.422 101.203 262.172 100.672C261.938 100.125 261.594 99.7578 261.141 99.5703C260.688 99.3672 260.148 99.2656 259.523 99.2656C258.773 99.2656 258.125 99.4219 257.578 99.7344C257.031 100.047 256.57 100.484 256.195 101.047C255.836 101.594 255.57 102.242 255.398 102.992C255.227 103.742 255.141 104.562 255.141 105.453ZM288.164 112.625V102.172C288.164 101.453 288.062 100.836 287.859 100.32C287.656 99.8047 287.336 99.4062 286.898 99.125C286.461 98.8281 285.875 98.6797 285.141 98.6797C284.547 98.6797 284.039 98.7812 283.617 98.9844C283.195 99.1875 282.875 99.4922 282.656 99.8984C282.438 100.305 282.328 100.82 282.328 101.445H274.43C274.43 100.273 274.688 99.1875 275.203 98.1875C275.734 97.1719 276.484 96.2891 277.453 95.5391C278.438 94.7891 279.609 94.2109 280.969 93.8047C282.344 93.3828 283.875 93.1719 285.562 93.1719C287.578 93.1719 289.375 93.5078 290.953 94.1797C292.547 94.8516 293.805 95.8594 294.727 97.2031C295.648 98.5312 296.109 100.203 296.109 102.219V112.602C296.109 114.258 296.203 115.516 296.391 116.375C296.578 117.219 296.844 117.961 297.188 118.602V119H289.266C288.891 118.219 288.609 117.266 288.422 116.141C288.25 115 288.164 113.828 288.164 112.625ZM289.125 103.508L289.172 107.727H285.68C284.945 107.727 284.32 107.828 283.805 108.031C283.305 108.234 282.898 108.516 282.586 108.875C282.289 109.219 282.07 109.609 281.93 110.047C281.805 110.484 281.742 110.945 281.742 111.43C281.742 111.898 281.852 112.32 282.07 112.695C282.305 113.055 282.617 113.336 283.008 113.539C283.398 113.742 283.836 113.844 284.32 113.844C285.195 113.844 285.938 113.68 286.547 113.352C287.172 113.008 287.648 112.594 287.977 112.109C288.305 111.625 288.469 111.172 288.469 110.75L290.203 113.984C289.891 114.609 289.531 115.242 289.125 115.883C288.734 116.523 288.242 117.117 287.648 117.664C287.07 118.195 286.359 118.633 285.516 118.977C284.672 119.305 283.648 119.469 282.445 119.469C280.883 119.469 279.445 119.148 278.133 118.508C276.836 117.867 275.797 116.977 275.016 115.836C274.234 114.68 273.844 113.352 273.844 111.852C273.844 110.539 274.078 109.367 274.547 108.336C275.031 107.305 275.758 106.43 276.727 105.711C277.695 104.992 278.93 104.445 280.43 104.07C281.93 103.695 283.695 103.508 285.727 103.508H289.125ZM308.25 99.0547V119H300.352V93.6406H307.758L308.25 99.0547ZM307.312 105.453L305.461 105.5C305.461 103.562 305.695 101.836 306.164 100.32C306.633 98.7891 307.297 97.4922 308.156 96.4297C309.016 95.3672 310.039 94.5625 311.227 94.0156C312.43 93.4531 313.766 93.1719 315.234 93.1719C316.406 93.1719 317.477 93.3438 318.445 93.6875C319.43 94.0312 320.273 94.5859 320.977 95.3516C321.695 96.1172 322.242 97.1328 322.617 98.3984C323.008 99.6484 323.203 101.195 323.203 103.039V119H315.258V103.016C315.258 102 315.117 101.227 314.836 100.695C314.555 100.148 314.148 99.7734 313.617 99.5703C313.086 99.3672 312.438 99.2656 311.672 99.2656C310.859 99.2656 310.172 99.4219 309.609 99.7344C309.047 100.047 308.594 100.484 308.25 101.047C307.922 101.594 307.68 102.242 307.523 102.992C307.383 103.742 307.312 104.562 307.312 105.453ZM338.297 113.375C339.031 113.375 339.656 113.242 340.172 112.977C340.703 112.695 341.102 112.305 341.367 111.805C341.648 111.289 341.781 110.672 341.766 109.953H349.195C349.211 111.859 348.742 113.531 347.789 114.969C346.852 116.391 345.57 117.5 343.945 118.297C342.336 119.078 340.516 119.469 338.484 119.469C336.5 119.469 334.766 119.148 333.281 118.508C331.797 117.852 330.555 116.945 329.555 115.789C328.57 114.617 327.828 113.25 327.328 111.688C326.844 110.125 326.602 108.43 326.602 106.602V106.062C326.602 104.234 326.844 102.539 327.328 100.977C327.828 99.3984 328.57 98.0312 329.555 96.875C330.555 95.7031 331.789 94.7969 333.258 94.1562C334.742 93.5 336.469 93.1719 338.438 93.1719C340.547 93.1719 342.406 93.5703 344.016 94.3672C345.641 95.1641 346.914 96.3203 347.836 97.8359C348.758 99.3516 349.211 101.188 349.195 103.344H341.766C341.781 102.578 341.664 101.891 341.414 101.281C341.164 100.672 340.773 100.188 340.242 99.8281C339.727 99.4531 339.062 99.2656 338.25 99.2656C337.438 99.2656 336.781 99.4453 336.281 99.8047C335.781 100.164 335.398 100.664 335.133 101.305C334.883 101.93 334.711 102.648 334.617 103.461C334.539 104.273 334.5 105.141 334.5 106.062V106.602C334.5 107.539 334.539 108.422 334.617 109.25C334.711 110.062 334.891 110.781 335.156 111.406C335.422 112.016 335.805 112.5 336.305 112.859C336.805 113.203 337.469 113.375 338.297 113.375ZM364.852 119.469C362.789 119.469 360.945 119.148 359.32 118.508C357.695 117.852 356.32 116.953 355.195 115.812C354.086 114.672 353.234 113.359 352.641 111.875C352.062 110.391 351.773 108.82 351.773 107.164V106.273C351.773 104.414 352.031 102.695 352.547 101.117C353.062 99.5234 353.828 98.1328 354.844 96.9453C355.859 95.7578 357.133 94.8359 358.664 94.1797C360.195 93.5078 361.977 93.1719 364.008 93.1719C365.805 93.1719 367.414 93.4609 368.836 94.0391C370.258 94.6172 371.461 95.4453 372.445 96.5234C373.445 97.6016 374.203 98.9062 374.719 100.438C375.25 101.969 375.516 103.688 375.516 105.594V108.805H354.797V103.859H367.805V103.25C367.82 102.406 367.672 101.688 367.359 101.094C367.062 100.5 366.625 100.047 366.047 99.7344C365.469 99.4219 364.766 99.2656 363.938 99.2656C363.078 99.2656 362.367 99.4531 361.805 99.8281C361.258 100.203 360.828 100.719 360.516 101.375C360.219 102.016 360.008 102.758 359.883 103.602C359.758 104.445 359.695 105.336 359.695 106.273V107.164C359.695 108.102 359.82 108.953 360.07 109.719C360.336 110.484 360.711 111.141 361.195 111.688C361.695 112.219 362.289 112.633 362.977 112.93C363.68 113.227 364.477 113.375 365.367 113.375C366.445 113.375 367.508 113.172 368.555 112.766C369.602 112.359 370.5 111.688 371.25 110.75L374.836 115.016C374.32 115.75 373.586 116.461 372.633 117.148C371.695 117.836 370.57 118.398 369.258 118.836C367.945 119.258 366.477 119.469 364.852 119.469Z" fill="black"/>
<path d="M1134 0H1348C1356.28 0 1363 6.71573 1363 15V148C1363 156.284 1356.28 163 1348 163H1134V0Z" fill="#1D2D3B"/>
<g clip-path="url(#clip0_14_2)">
<path d="M1221 114L1276 114C1278.76 114 1281 111.761 1281 109V54C1281 51.2386 1278.76 49 1276 49L1221 49C1218.24 49 1216 51.2386 1216 54V109C1216 111.761 1218.24 114 1221 114Z" stroke="white" stroke-width="5" stroke-linecap="round" stroke-linejoin="round"/>
<path d="M1228.5 61.5H1238.5M1228.5 74H1251M1271 74L1256 99L1238.5 89L1228.5 104" stroke="white" stroke-width="5" stroke-linecap="round" stroke-linejoin="round"/>
</g>
<defs>
<clipPath id="clip0_14_2">
<rect width="70" height="70" fill="white" transform="translate(1213.5 46.5)"/>
</clipPath>
</defs>
</svg>
