<svg width="1363" height="163" viewBox="0 0 1363 163" fill="none" xmlns="http://www.w3.org/2000/svg">
<path d="M0 15C0 6.71573 6.71573 0 15 0H37V163H15C6.71573 163 0 156.284 0 148V15Z" fill="#424242"/>
<rect width="1097" height="163" transform="translate(37)" fill="#F0F0F0"/>
<path d="M101.906 53.9219L94.3945 51.2383V48.0859L104.602 52.375V54.6367L101.906 53.9219ZM94.3945 56.1719L101.918 53.4297L104.602 52.7852V55.0352L94.3945 59.3242V56.1719ZM123.867 58.2578V61H115.277V58.2578H123.867ZM116.414 43.9375V61H112.898V43.9375H116.414ZM129.234 48.3203V61H125.848V48.3203H129.234ZM125.637 45.0156C125.637 44.5234 125.809 44.1172 126.152 43.7969C126.496 43.4766 126.957 43.3164 127.535 43.3164C128.105 43.3164 128.562 43.4766 128.906 43.7969C129.258 44.1172 129.434 44.5234 129.434 45.0156C129.434 45.5078 129.258 45.9141 128.906 46.2344C128.562 46.5547 128.105 46.7148 127.535 46.7148C126.957 46.7148 126.496 46.5547 126.152 46.2344C125.809 45.9141 125.637 45.5078 125.637 45.0156ZM142.125 55.3398H145.629C145.559 56.4883 145.242 57.5078 144.68 58.3984C144.125 59.2891 143.348 59.9844 142.348 60.4844C141.355 60.9844 140.16 61.2344 138.762 61.2344C137.668 61.2344 136.688 61.0469 135.82 60.6719C134.953 60.2891 134.211 59.7422 133.594 59.0312C132.984 58.3203 132.52 57.4609 132.199 56.4531C131.879 55.4453 131.719 54.3164 131.719 53.0664V51.8828C131.719 50.6328 131.883 49.5039 132.211 48.4961C132.547 47.4805 133.023 46.6172 133.641 45.9062C134.266 45.1953 135.012 44.6484 135.879 44.2656C136.746 43.8828 137.715 43.6914 138.785 43.6914C140.207 43.6914 141.406 43.9492 142.383 44.4648C143.367 44.9805 144.129 45.6914 144.668 46.5977C145.215 47.5039 145.543 48.5352 145.652 49.6914H142.137C142.098 49.0039 141.961 48.4219 141.727 47.9453C141.492 47.4609 141.137 47.0977 140.66 46.8555C140.191 46.6055 139.566 46.4805 138.785 46.4805C138.199 46.4805 137.688 46.5898 137.25 46.8086C136.812 47.0273 136.445 47.3594 136.148 47.8047C135.852 48.25 135.629 48.8125 135.48 49.4922C135.34 50.1641 135.27 50.9531 135.27 51.8594V53.0664C135.27 53.9492 135.336 54.7266 135.469 55.3984C135.602 56.0625 135.805 56.625 136.078 57.0859C136.359 57.5391 136.719 57.8828 137.156 58.1172C137.602 58.3438 138.137 58.457 138.762 58.457C139.496 58.457 140.102 58.3398 140.578 58.1055C141.055 57.8711 141.418 57.5234 141.668 57.0625C141.926 56.6016 142.078 56.0273 142.125 55.3398ZM153.562 61.2344C152.578 61.2344 151.695 61.0781 150.914 60.7656C150.133 60.4453 149.469 60.0039 148.922 59.4414C148.383 58.8789 147.969 58.2266 147.68 57.4844C147.391 56.7344 147.246 55.9375 147.246 55.0938V54.625C147.246 53.6641 147.383 52.7852 147.656 51.9883C147.93 51.1914 148.32 50.5 148.828 49.9141C149.344 49.3281 149.969 48.8789 150.703 48.5664C151.438 48.2461 152.266 48.0859 153.188 48.0859C154.086 48.0859 154.883 48.2344 155.578 48.5312C156.273 48.8281 156.855 49.25 157.324 49.7969C157.801 50.3438 158.16 51 158.402 51.7656C158.645 52.5234 158.766 53.3672 158.766 54.2969V55.7031H148.688V53.4531H155.449V53.1953C155.449 52.7266 155.363 52.3086 155.191 51.9414C155.027 51.5664 154.777 51.2695 154.441 51.0508C154.105 50.832 153.676 50.7227 153.152 50.7227C152.707 50.7227 152.324 50.8203 152.004 51.0156C151.684 51.2109 151.422 51.4844 151.219 51.8359C151.023 52.1875 150.875 52.6016 150.773 53.0781C150.68 53.5469 150.633 54.0625 150.633 54.625V55.0938C150.633 55.6016 150.703 56.0703 150.844 56.5C150.992 56.9297 151.199 57.3008 151.465 57.6133C151.738 57.9258 152.066 58.168 152.449 58.3398C152.84 58.5117 153.281 58.5977 153.773 58.5977C154.383 58.5977 154.949 58.4805 155.473 58.2461C156.004 58.0039 156.461 57.6406 156.844 57.1562L158.484 58.9375C158.219 59.3203 157.855 59.6875 157.395 60.0391C156.941 60.3906 156.395 60.6797 155.754 60.9062C155.113 61.125 154.383 61.2344 153.562 61.2344ZM167.543 57.4961C167.543 57.2539 167.473 57.0352 167.332 56.8398C167.191 56.6445 166.93 56.4648 166.547 56.3008C166.172 56.1289 165.629 55.9727 164.918 55.832C164.277 55.6914 163.68 55.5156 163.125 55.3047C162.578 55.0859 162.102 54.8242 161.695 54.5195C161.297 54.2148 160.984 53.8555 160.758 53.4414C160.531 53.0195 160.418 52.5391 160.418 52C160.418 51.4688 160.531 50.9688 160.758 50.5C160.992 50.0312 161.324 49.6172 161.754 49.2578C162.191 48.8906 162.723 48.6055 163.348 48.4023C163.98 48.1914 164.691 48.0859 165.48 48.0859C166.582 48.0859 167.527 48.2617 168.316 48.6133C169.113 48.9648 169.723 49.4492 170.145 50.0664C170.574 50.6758 170.789 51.3711 170.789 52.1523H167.414C167.414 51.8242 167.344 51.5312 167.203 51.2734C167.07 51.0078 166.859 50.8008 166.57 50.6523C166.289 50.4961 165.922 50.418 165.469 50.418C165.094 50.418 164.77 50.4844 164.496 50.6172C164.223 50.7422 164.012 50.9141 163.863 51.1328C163.723 51.3438 163.652 51.5781 163.652 51.8359C163.652 52.0312 163.691 52.207 163.77 52.3633C163.855 52.5117 163.992 52.6484 164.18 52.7734C164.367 52.8984 164.609 53.0156 164.906 53.125C165.211 53.2266 165.586 53.3203 166.031 53.4062C166.945 53.5938 167.762 53.8398 168.48 54.1445C169.199 54.4414 169.77 54.8477 170.191 55.3633C170.613 55.8711 170.824 56.5391 170.824 57.3672C170.824 57.9297 170.699 58.4453 170.449 58.9141C170.199 59.3828 169.84 59.793 169.371 60.1445C168.902 60.4883 168.34 60.7578 167.684 60.9531C167.035 61.1406 166.305 61.2344 165.492 61.2344C164.312 61.2344 163.312 61.0234 162.492 60.6016C161.68 60.1797 161.062 59.6445 160.641 58.9961C160.227 58.3398 160.02 57.668 160.02 56.9805H163.219C163.234 57.4414 163.352 57.8125 163.57 58.0938C163.797 58.375 164.082 58.5781 164.426 58.7031C164.777 58.8281 165.156 58.8906 165.562 58.8906C166 58.8906 166.363 58.832 166.652 58.7148C166.941 58.5898 167.16 58.4258 167.309 58.2227C167.465 58.0117 167.543 57.7695 167.543 57.4961ZM179.871 57.4961C179.871 57.2539 179.801 57.0352 179.66 56.8398C179.52 56.6445 179.258 56.4648 178.875 56.3008C178.5 56.1289 177.957 55.9727 177.246 55.832C176.605 55.6914 176.008 55.5156 175.453 55.3047C174.906 55.0859 174.43 54.8242 174.023 54.5195C173.625 54.2148 173.312 53.8555 173.086 53.4414C172.859 53.0195 172.746 52.5391 172.746 52C172.746 51.4688 172.859 50.9688 173.086 50.5C173.32 50.0312 173.652 49.6172 174.082 49.2578C174.52 48.8906 175.051 48.6055 175.676 48.4023C176.309 48.1914 177.02 48.0859 177.809 48.0859C178.91 48.0859 179.855 48.2617 180.645 48.6133C181.441 48.9648 182.051 49.4492 182.473 50.0664C182.902 50.6758 183.117 51.3711 183.117 52.1523H179.742C179.742 51.8242 179.672 51.5312 179.531 51.2734C179.398 51.0078 179.188 50.8008 178.898 50.6523C178.617 50.4961 178.25 50.418 177.797 50.418C177.422 50.418 177.098 50.4844 176.824 50.6172C176.551 50.7422 176.34 50.9141 176.191 51.1328C176.051 51.3438 175.98 51.5781 175.98 51.8359C175.98 52.0312 176.02 52.207 176.098 52.3633C176.184 52.5117 176.32 52.6484 176.508 52.7734C176.695 52.8984 176.938 53.0156 177.234 53.125C177.539 53.2266 177.914 53.3203 178.359 53.4062C179.273 53.5938 180.09 53.8398 180.809 54.1445C181.527 54.4414 182.098 54.8477 182.52 55.3633C182.941 55.8711 183.152 56.5391 183.152 57.3672C183.152 57.9297 183.027 58.4453 182.777 58.9141C182.527 59.3828 182.168 59.793 181.699 60.1445C181.23 60.4883 180.668 60.7578 180.012 60.9531C179.363 61.1406 178.633 61.2344 177.82 61.2344C176.641 61.2344 175.641 61.0234 174.82 60.6016C174.008 60.1797 173.391 59.6445 172.969 58.9961C172.555 58.3398 172.348 57.668 172.348 56.9805H175.547C175.562 57.4414 175.68 57.8125 175.898 58.0938C176.125 58.375 176.41 58.5781 176.754 58.7031C177.105 58.8281 177.484 58.8906 177.891 58.8906C178.328 58.8906 178.691 58.832 178.98 58.7148C179.27 58.5898 179.488 58.4258 179.637 58.2227C179.793 58.0117 179.871 57.7695 179.871 57.4961Z" fill="#888888"/>
<path d="M109.219 107.422H100.734V101.07H109.219C110.375 101.07 111.312 100.875 112.031 100.484C112.75 100.094 113.273 99.5547 113.602 98.8672C113.945 98.1641 114.117 97.375 114.117 96.5C114.117 95.5625 113.945 94.6953 113.602 93.8984C113.273 93.1016 112.75 92.4609 112.031 91.9766C111.312 91.4766 110.375 91.2266 109.219 91.2266H103.828V119H95.6016V84.875H109.219C111.953 84.875 114.305 85.375 116.273 86.375C118.258 87.375 119.781 88.75 120.844 90.5C121.906 92.2344 122.438 94.2188 122.438 96.4531C122.438 98.6562 121.906 100.578 120.844 102.219C119.781 103.859 118.258 105.141 116.273 106.062C114.305 106.969 111.953 107.422 109.219 107.422ZM134.461 99.9219V119H126.562V93.6406H133.945L134.461 99.9219ZM141.961 93.4531L141.82 100.789C141.508 100.758 141.086 100.719 140.555 100.672C140.023 100.625 139.578 100.602 139.219 100.602C138.297 100.602 137.5 100.711 136.828 100.93C136.172 101.133 135.625 101.445 135.188 101.867C134.766 102.273 134.453 102.789 134.25 103.414C134.062 104.039 133.977 104.766 133.992 105.594L132.562 104.656C132.562 102.953 132.727 101.406 133.055 100.016C133.398 98.6094 133.883 97.3984 134.508 96.3828C135.133 95.3516 135.891 94.5625 136.781 94.0156C137.672 93.4531 138.672 93.1719 139.781 93.1719C140.172 93.1719 140.555 93.1953 140.93 93.2422C141.32 93.2891 141.664 93.3594 141.961 93.4531ZM142.852 106.578V106.086C142.852 104.227 143.117 102.516 143.648 100.953C144.18 99.375 144.961 98.0078 145.992 96.8516C147.023 95.6953 148.297 94.7969 149.812 94.1562C151.328 93.5 153.078 93.1719 155.062 93.1719C157.062 93.1719 158.82 93.5 160.336 94.1562C161.867 94.7969 163.148 95.6953 164.18 96.8516C165.211 98.0078 165.992 99.375 166.523 100.953C167.055 102.516 167.32 104.227 167.32 106.086V106.578C167.32 108.422 167.055 110.133 166.523 111.711C165.992 113.273 165.211 114.641 164.18 115.812C163.148 116.969 161.875 117.867 160.359 118.508C158.844 119.148 157.094 119.469 155.109 119.469C153.125 119.469 151.367 119.148 149.836 118.508C148.305 117.867 147.023 116.969 145.992 115.812C144.961 114.641 144.18 113.273 143.648 111.711C143.117 110.133 142.852 108.422 142.852 106.578ZM150.75 106.086V106.578C150.75 107.531 150.82 108.422 150.961 109.25C151.102 110.078 151.336 110.805 151.664 111.43C151.992 112.039 152.438 112.516 153 112.859C153.562 113.203 154.266 113.375 155.109 113.375C155.938 113.375 156.625 113.203 157.172 112.859C157.734 112.516 158.18 112.039 158.508 111.43C158.836 110.805 159.07 110.078 159.211 109.25C159.352 108.422 159.422 107.531 159.422 106.578V106.086C159.422 105.164 159.352 104.297 159.211 103.484C159.07 102.656 158.836 101.93 158.508 101.305C158.18 100.664 157.734 100.164 157.172 99.8047C156.609 99.4453 155.906 99.2656 155.062 99.2656C154.234 99.2656 153.539 99.4453 152.977 99.8047C152.43 100.164 151.992 100.664 151.664 101.305C151.336 101.93 151.102 102.656 150.961 103.484C150.82 104.297 150.75 105.164 150.75 106.086ZM184.195 93.6406V99.125H168.914V93.6406H184.195ZM172.125 87.3359H180.023V110.727C180.023 111.398 180.102 111.922 180.258 112.297C180.414 112.656 180.68 112.914 181.055 113.07C181.445 113.211 181.961 113.281 182.602 113.281C183.055 113.281 183.43 113.273 183.727 113.258C184.023 113.227 184.305 113.188 184.57 113.141V118.789C183.898 119.008 183.195 119.172 182.461 119.281C181.727 119.406 180.945 119.469 180.117 119.469C178.43 119.469 176.984 119.203 175.781 118.672C174.594 118.141 173.688 117.305 173.062 116.164C172.438 115.023 172.125 113.539 172.125 111.711V87.3359ZM185.648 106.578V106.086C185.648 104.227 185.914 102.516 186.445 100.953C186.977 99.375 187.758 98.0078 188.789 96.8516C189.82 95.6953 191.094 94.7969 192.609 94.1562C194.125 93.5 195.875 93.1719 197.859 93.1719C199.859 93.1719 201.617 93.5 203.133 94.1562C204.664 94.7969 205.945 95.6953 206.977 96.8516C208.008 98.0078 208.789 99.375 209.32 100.953C209.852 102.516 210.117 104.227 210.117 106.086V106.578C210.117 108.422 209.852 110.133 209.32 111.711C208.789 113.273 208.008 114.641 206.977 115.812C205.945 116.969 204.672 117.867 203.156 118.508C201.641 119.148 199.891 119.469 197.906 119.469C195.922 119.469 194.164 119.148 192.633 118.508C191.102 117.867 189.82 116.969 188.789 115.812C187.758 114.641 186.977 113.273 186.445 111.711C185.914 110.133 185.648 108.422 185.648 106.578ZM193.547 106.086V106.578C193.547 107.531 193.617 108.422 193.758 109.25C193.898 110.078 194.133 110.805 194.461 111.43C194.789 112.039 195.234 112.516 195.797 112.859C196.359 113.203 197.062 113.375 197.906 113.375C198.734 113.375 199.422 113.203 199.969 112.859C200.531 112.516 200.977 112.039 201.305 111.43C201.633 110.805 201.867 110.078 202.008 109.25C202.148 108.422 202.219 107.531 202.219 106.578V106.086C202.219 105.164 202.148 104.297 202.008 103.484C201.867 102.656 201.633 101.93 201.305 101.305C200.977 100.664 200.531 100.164 199.969 99.8047C199.406 99.4453 198.703 99.2656 197.859 99.2656C197.031 99.2656 196.336 99.4453 195.773 99.8047C195.227 100.164 194.789 100.664 194.461 101.305C194.133 101.93 193.898 102.656 193.758 103.484C193.617 104.297 193.547 105.164 193.547 106.086ZM226.992 93.6406V99.125H211.711V93.6406H226.992ZM214.922 87.3359H222.82V110.727C222.82 111.398 222.898 111.922 223.055 112.297C223.211 112.656 223.477 112.914 223.852 113.07C224.242 113.211 224.758 113.281 225.398 113.281C225.852 113.281 226.227 113.273 226.523 113.258C226.82 113.227 227.102 113.188 227.367 113.141V118.789C226.695 119.008 225.992 119.172 225.258 119.281C224.523 119.406 223.742 119.469 222.914 119.469C221.227 119.469 219.781 119.203 218.578 118.672C217.391 118.141 216.484 117.305 215.859 116.164C215.234 115.023 214.922 113.539 214.922 111.711V87.3359ZM237.914 116.023L244.477 93.6406H252.961L242.766 122.773C242.547 123.414 242.258 124.102 241.898 124.836C241.539 125.586 241.047 126.297 240.422 126.969C239.797 127.641 238.992 128.188 238.008 128.609C237.039 129.031 235.836 129.242 234.398 129.242C233.633 129.242 233.07 129.203 232.711 129.125C232.367 129.062 231.836 128.945 231.117 128.773V123.125C231.32 123.125 231.492 123.125 231.633 123.125C231.789 123.125 231.961 123.125 232.148 123.125C232.992 123.125 233.664 123.039 234.164 122.867C234.68 122.695 235.07 122.445 235.336 122.117C235.617 121.789 235.836 121.391 235.992 120.922L237.914 116.023ZM236.25 93.6406L241.242 111.383L242.109 119.75H236.812L227.789 93.6406H236.25ZM262.992 98.5156V128.75H255.094V93.6406H262.453L262.992 98.5156ZM278.555 106.016V106.508C278.555 108.352 278.344 110.062 277.922 111.641C277.5 113.219 276.875 114.594 276.047 115.766C275.219 116.938 274.188 117.852 272.953 118.508C271.734 119.148 270.32 119.469 268.711 119.469C267.195 119.469 265.891 119.133 264.797 118.461C263.703 117.789 262.789 116.859 262.055 115.672C261.32 114.484 260.727 113.125 260.273 111.594C259.82 110.062 259.461 108.445 259.195 106.742V106.109C259.461 104.281 259.82 102.586 260.273 101.023C260.727 99.4453 261.32 98.0703 262.055 96.8984C262.789 95.7266 263.695 94.8125 264.773 94.1562C265.867 93.5 267.172 93.1719 268.688 93.1719C270.297 93.1719 271.711 93.4766 272.93 94.0859C274.164 94.6953 275.195 95.5703 276.023 96.7109C276.867 97.8359 277.5 99.1875 277.922 100.766C278.344 102.344 278.555 104.094 278.555 106.016ZM270.656 106.508V106.016C270.656 105.031 270.586 104.133 270.445 103.32C270.305 102.492 270.078 101.773 269.766 101.164C269.469 100.555 269.07 100.086 268.57 99.7578C268.07 99.4297 267.453 99.2656 266.719 99.2656C265.875 99.2656 265.164 99.3984 264.586 99.6641C264.023 99.9141 263.57 100.305 263.227 100.836C262.898 101.352 262.664 102 262.523 102.781C262.398 103.547 262.344 104.445 262.359 105.477V107.398C262.328 108.586 262.445 109.633 262.711 110.539C262.977 111.43 263.438 112.125 264.094 112.625C264.75 113.125 265.641 113.375 266.766 113.375C267.516 113.375 268.141 113.203 268.641 112.859C269.141 112.5 269.539 112.008 269.836 111.383C270.133 110.742 270.344 110.008 270.469 109.18C270.594 108.352 270.656 107.461 270.656 106.508ZM290.414 93.6406V119H282.492V93.6406H290.414ZM282.023 87.1016C282.023 85.9766 282.43 85.0547 283.242 84.3359C284.055 83.6172 285.109 83.2578 286.406 83.2578C287.703 83.2578 288.758 83.6172 289.57 84.3359C290.383 85.0547 290.789 85.9766 290.789 87.1016C290.789 88.2266 290.383 89.1484 289.57 89.8672C288.758 90.5859 287.703 90.9453 286.406 90.9453C285.109 90.9453 284.055 90.5859 283.242 89.8672C282.43 89.1484 282.023 88.2266 282.023 87.1016ZM303.047 99.0547V119H295.148V93.6406H302.555L303.047 99.0547ZM302.109 105.453L300.258 105.5C300.258 103.562 300.492 101.836 300.961 100.32C301.43 98.7891 302.094 97.4922 302.953 96.4297C303.812 95.3672 304.836 94.5625 306.023 94.0156C307.227 93.4531 308.562 93.1719 310.031 93.1719C311.203 93.1719 312.273 93.3438 313.242 93.6875C314.227 94.0312 315.07 94.5859 315.773 95.3516C316.492 96.1172 317.039 97.1328 317.414 98.3984C317.805 99.6484 318 101.195 318 103.039V119H310.055V103.016C310.055 102 309.914 101.227 309.633 100.695C309.352 100.148 308.945 99.7734 308.414 99.5703C307.883 99.3672 307.234 99.2656 306.469 99.2656C305.656 99.2656 304.969 99.4219 304.406 99.7344C303.844 100.047 303.391 100.484 303.047 101.047C302.719 101.594 302.477 102.242 302.32 102.992C302.18 103.742 302.109 104.562 302.109 105.453ZM338.32 93.6406H345.492V118.016C345.492 120.359 344.953 122.344 343.875 123.969C342.797 125.609 341.289 126.852 339.352 127.695C337.43 128.555 335.18 128.984 332.602 128.984C331.461 128.984 330.297 128.836 329.109 128.539C327.922 128.258 326.812 127.836 325.781 127.273C324.75 126.711 323.883 126.016 323.18 125.188L326.484 120.547C327.125 121.266 327.93 121.875 328.898 122.375C329.867 122.891 331.008 123.148 332.32 123.148C333.461 123.148 334.414 122.945 335.18 122.539C335.961 122.133 336.555 121.539 336.961 120.758C337.367 119.992 337.57 119.062 337.57 117.969V99.6406L338.32 93.6406ZM321.469 106.625V106.133C321.469 104.211 321.703 102.461 322.172 100.883C322.656 99.2891 323.344 97.9219 324.234 96.7812C325.141 95.625 326.234 94.7344 327.516 94.1094C328.797 93.4844 330.242 93.1719 331.852 93.1719C333.586 93.1719 335.008 93.5078 336.117 94.1797C337.242 94.8359 338.141 95.7578 338.812 96.9453C339.5 98.1328 340.031 99.5234 340.406 101.117C340.797 102.695 341.125 104.398 341.391 106.227V106.812C341.125 108.531 340.758 110.156 340.289 111.688C339.836 113.203 339.242 114.547 338.508 115.719C337.773 116.891 336.852 117.812 335.742 118.484C334.648 119.141 333.336 119.469 331.805 119.469C330.211 119.469 328.773 119.148 327.492 118.508C326.227 117.867 325.141 116.969 324.234 115.812C323.344 114.656 322.656 113.297 322.172 111.734C321.703 110.172 321.469 108.469 321.469 106.625ZM329.367 106.133V106.625C329.367 107.578 329.453 108.461 329.625 109.273C329.812 110.086 330.094 110.805 330.469 111.43C330.844 112.039 331.305 112.516 331.852 112.859C332.414 113.203 333.07 113.375 333.82 113.375C334.961 113.375 335.883 113.133 336.586 112.648C337.289 112.164 337.797 111.477 338.109 110.586C338.422 109.695 338.555 108.648 338.508 107.445V105.594C338.539 104.562 338.469 103.656 338.297 102.875C338.125 102.078 337.852 101.414 337.477 100.883C337.117 100.352 336.633 99.9531 336.023 99.6875C335.43 99.4062 334.711 99.2656 333.867 99.2656C333.133 99.2656 332.484 99.4375 331.922 99.7812C331.359 100.125 330.891 100.609 330.516 101.234C330.141 101.844 329.852 102.57 329.648 103.414C329.461 104.242 329.367 105.148 329.367 106.133Z" fill="black"/>
<path d="M1134 0H1348C1356.28 0 1363 6.71573 1363 15V148C1363 156.284 1356.28 163 1348 163H1134V0Z" fill="#1D2D3B"/>
<path fill-rule="evenodd" clip-rule="evenodd" d="M1202.75 46.5018C1202.75 45.3973 1203.65 44.5018 1204.75 44.5018H1292.25C1293.35 44.5018 1294.25 45.3973 1294.25 46.5018V116.498C1294.25 117.603 1293.35 118.498 1292.25 118.498H1204.75C1203.65 118.498 1202.75 117.603 1202.75 116.498V46.5018ZM1206.75 48.5018V52.9963H1290.25V48.5018H1206.75ZM1290.25 56.9963H1235.19V114.498H1290.25V56.9963ZM1231.19 114.498V56.9963H1206.75V114.498H1231.19Z" fill="white"/>
<path fill-rule="evenodd" clip-rule="evenodd" d="M1209.72 62.3022C1209.72 61.1976 1210.62 60.3022 1211.72 60.3022H1225.72C1226.83 60.3022 1227.72 61.1976 1227.72 62.3022V81.6974C1227.72 82.802 1226.83 83.6974 1225.72 83.6974H1211.72C1210.62 83.6974 1209.72 82.802 1209.72 81.6974V62.3022ZM1213.72 64.3022V79.6974H1223.72V64.3022H1213.72ZM1239.33 63.1982C1239.33 62.0936 1240.22 61.1982 1241.33 61.1982H1284.25C1285.36 61.1982 1286.25 62.0936 1286.25 63.1982V109.407C1286.25 110.511 1285.36 111.407 1284.25 111.407H1241.33C1240.22 111.407 1239.33 110.511 1239.33 109.407V63.1982ZM1243.33 65.1982V107.407H1282.25V65.1982H1243.33ZM1209.56 93.4381C1209.56 92.3336 1210.46 91.4381 1211.56 91.4381H1220.48C1221.59 91.4381 1222.48 92.3336 1222.48 93.4381C1222.48 94.5427 1221.59 95.4381 1220.48 95.4381H1211.56C1210.46 95.4381 1209.56 94.5427 1209.56 93.4381ZM1209.56 100.438C1209.56 99.3335 1210.46 98.4381 1211.56 98.4381H1226.1C1227.21 98.4381 1228.1 99.3335 1228.1 100.438C1228.1 101.543 1227.21 102.438 1226.1 102.438H1211.56C1210.46 102.438 1209.56 101.543 1209.56 100.438ZM1209.56 107.438C1209.56 106.334 1210.46 105.438 1211.56 105.438H1220.48C1221.59 105.438 1222.48 106.334 1222.48 107.438C1222.48 108.543 1221.59 109.438 1220.48 109.438H1211.56C1210.46 109.438 1209.56 108.543 1209.56 107.438Z" fill="white"/>
</svg>
