<svg width="1363" height="163" viewBox="0 0 1363 163" fill="none" xmlns="http://www.w3.org/2000/svg">
<path d="M0 15C0 6.71573 6.71573 0 15 0H37V163H15C6.71573 163 0 156.284 0 148V15Z" fill="#1D2D3B"/>
<rect width="1097" height="163" transform="translate(37)" fill="#F0F0F0"/>
<path d="M101.906 53.9219L94.3945 51.2383V48.0859L104.602 52.375V54.6367L101.906 53.9219ZM94.3945 56.1719L101.918 53.4297L104.602 52.7852V55.0352L94.3945 59.3242V56.1719ZM123.867 58.2578V61H115.277V58.2578H123.867ZM116.414 43.9375V61H112.898V43.9375H116.414ZM129.234 48.3203V61H125.848V48.3203H129.234ZM125.637 45.0156C125.637 44.5234 125.809 44.1172 126.152 43.7969C126.496 43.4766 126.957 43.3164 127.535 43.3164C128.105 43.3164 128.562 43.4766 128.906 43.7969C129.258 44.1172 129.434 44.5234 129.434 45.0156C129.434 45.5078 129.258 45.9141 128.906 46.2344C128.562 46.5547 128.105 46.7148 127.535 46.7148C126.957 46.7148 126.496 46.5547 126.152 46.2344C125.809 45.9141 125.637 45.5078 125.637 45.0156ZM142.125 55.3398H145.629C145.559 56.4883 145.242 57.5078 144.68 58.3984C144.125 59.2891 143.348 59.9844 142.348 60.4844C141.355 60.9844 140.16 61.2344 138.762 61.2344C137.668 61.2344 136.688 61.0469 135.82 60.6719C134.953 60.2891 134.211 59.7422 133.594 59.0312C132.984 58.3203 132.52 57.4609 132.199 56.4531C131.879 55.4453 131.719 54.3164 131.719 53.0664V51.8828C131.719 50.6328 131.883 49.5039 132.211 48.4961C132.547 47.4805 133.023 46.6172 133.641 45.9062C134.266 45.1953 135.012 44.6484 135.879 44.2656C136.746 43.8828 137.715 43.6914 138.785 43.6914C140.207 43.6914 141.406 43.9492 142.383 44.4648C143.367 44.9805 144.129 45.6914 144.668 46.5977C145.215 47.5039 145.543 48.5352 145.652 49.6914H142.137C142.098 49.0039 141.961 48.4219 141.727 47.9453C141.492 47.4609 141.137 47.0977 140.66 46.8555C140.191 46.6055 139.566 46.4805 138.785 46.4805C138.199 46.4805 137.688 46.5898 137.25 46.8086C136.812 47.0273 136.445 47.3594 136.148 47.8047C135.852 48.25 135.629 48.8125 135.48 49.4922C135.34 50.1641 135.27 50.9531 135.27 51.8594V53.0664C135.27 53.9492 135.336 54.7266 135.469 55.3984C135.602 56.0625 135.805 56.625 136.078 57.0859C136.359 57.5391 136.719 57.8828 137.156 58.1172C137.602 58.3438 138.137 58.457 138.762 58.457C139.496 58.457 140.102 58.3398 140.578 58.1055C141.055 57.8711 141.418 57.5234 141.668 57.0625C141.926 56.6016 142.078 56.0273 142.125 55.3398ZM153.562 61.2344C152.578 61.2344 151.695 61.0781 150.914 60.7656C150.133 60.4453 149.469 60.0039 148.922 59.4414C148.383 58.8789 147.969 58.2266 147.68 57.4844C147.391 56.7344 147.246 55.9375 147.246 55.0938V54.625C147.246 53.6641 147.383 52.7852 147.656 51.9883C147.93 51.1914 148.32 50.5 148.828 49.9141C149.344 49.3281 149.969 48.8789 150.703 48.5664C151.438 48.2461 152.266 48.0859 153.188 48.0859C154.086 48.0859 154.883 48.2344 155.578 48.5312C156.273 48.8281 156.855 49.25 157.324 49.7969C157.801 50.3438 158.16 51 158.402 51.7656C158.645 52.5234 158.766 53.3672 158.766 54.2969V55.7031H148.688V53.4531H155.449V53.1953C155.449 52.7266 155.363 52.3086 155.191 51.9414C155.027 51.5664 154.777 51.2695 154.441 51.0508C154.105 50.832 153.676 50.7227 153.152 50.7227C152.707 50.7227 152.324 50.8203 152.004 51.0156C151.684 51.2109 151.422 51.4844 151.219 51.8359C151.023 52.1875 150.875 52.6016 150.773 53.0781C150.68 53.5469 150.633 54.0625 150.633 54.625V55.0938C150.633 55.6016 150.703 56.0703 150.844 56.5C150.992 56.9297 151.199 57.3008 151.465 57.6133C151.738 57.9258 152.066 58.168 152.449 58.3398C152.84 58.5117 153.281 58.5977 153.773 58.5977C154.383 58.5977 154.949 58.4805 155.473 58.2461C156.004 58.0039 156.461 57.6406 156.844 57.1562L158.484 58.9375C158.219 59.3203 157.855 59.6875 157.395 60.0391C156.941 60.3906 156.395 60.6797 155.754 60.9062C155.113 61.125 154.383 61.2344 153.562 61.2344ZM167.543 57.4961C167.543 57.2539 167.473 57.0352 167.332 56.8398C167.191 56.6445 166.93 56.4648 166.547 56.3008C166.172 56.1289 165.629 55.9727 164.918 55.832C164.277 55.6914 163.68 55.5156 163.125 55.3047C162.578 55.0859 162.102 54.8242 161.695 54.5195C161.297 54.2148 160.984 53.8555 160.758 53.4414C160.531 53.0195 160.418 52.5391 160.418 52C160.418 51.4688 160.531 50.9688 160.758 50.5C160.992 50.0312 161.324 49.6172 161.754 49.2578C162.191 48.8906 162.723 48.6055 163.348 48.4023C163.98 48.1914 164.691 48.0859 165.48 48.0859C166.582 48.0859 167.527 48.2617 168.316 48.6133C169.113 48.9648 169.723 49.4492 170.145 50.0664C170.574 50.6758 170.789 51.3711 170.789 52.1523H167.414C167.414 51.8242 167.344 51.5312 167.203 51.2734C167.07 51.0078 166.859 50.8008 166.57 50.6523C166.289 50.4961 165.922 50.418 165.469 50.418C165.094 50.418 164.77 50.4844 164.496 50.6172C164.223 50.7422 164.012 50.9141 163.863 51.1328C163.723 51.3438 163.652 51.5781 163.652 51.8359C163.652 52.0312 163.691 52.207 163.77 52.3633C163.855 52.5117 163.992 52.6484 164.18 52.7734C164.367 52.8984 164.609 53.0156 164.906 53.125C165.211 53.2266 165.586 53.3203 166.031 53.4062C166.945 53.5938 167.762 53.8398 168.48 54.1445C169.199 54.4414 169.77 54.8477 170.191 55.3633C170.613 55.8711 170.824 56.5391 170.824 57.3672C170.824 57.9297 170.699 58.4453 170.449 58.9141C170.199 59.3828 169.84 59.793 169.371 60.1445C168.902 60.4883 168.34 60.7578 167.684 60.9531C167.035 61.1406 166.305 61.2344 165.492 61.2344C164.312 61.2344 163.312 61.0234 162.492 60.6016C161.68 60.1797 161.062 59.6445 160.641 58.9961C160.227 58.3398 160.02 57.668 160.02 56.9805H163.219C163.234 57.4414 163.352 57.8125 163.57 58.0938C163.797 58.375 164.082 58.5781 164.426 58.7031C164.777 58.8281 165.156 58.8906 165.562 58.8906C166 58.8906 166.363 58.832 166.652 58.7148C166.941 58.5898 167.16 58.4258 167.309 58.2227C167.465 58.0117 167.543 57.7695 167.543 57.4961ZM179.871 57.4961C179.871 57.2539 179.801 57.0352 179.66 56.8398C179.52 56.6445 179.258 56.4648 178.875 56.3008C178.5 56.1289 177.957 55.9727 177.246 55.832C176.605 55.6914 176.008 55.5156 175.453 55.3047C174.906 55.0859 174.43 54.8242 174.023 54.5195C173.625 54.2148 173.312 53.8555 173.086 53.4414C172.859 53.0195 172.746 52.5391 172.746 52C172.746 51.4688 172.859 50.9688 173.086 50.5C173.32 50.0312 173.652 49.6172 174.082 49.2578C174.52 48.8906 175.051 48.6055 175.676 48.4023C176.309 48.1914 177.02 48.0859 177.809 48.0859C178.91 48.0859 179.855 48.2617 180.645 48.6133C181.441 48.9648 182.051 49.4492 182.473 50.0664C182.902 50.6758 183.117 51.3711 183.117 52.1523H179.742C179.742 51.8242 179.672 51.5312 179.531 51.2734C179.398 51.0078 179.188 50.8008 178.898 50.6523C178.617 50.4961 178.25 50.418 177.797 50.418C177.422 50.418 177.098 50.4844 176.824 50.6172C176.551 50.7422 176.34 50.9141 176.191 51.1328C176.051 51.3438 175.98 51.5781 175.98 51.8359C175.98 52.0312 176.02 52.207 176.098 52.3633C176.184 52.5117 176.32 52.6484 176.508 52.7734C176.695 52.8984 176.938 53.0156 177.234 53.125C177.539 53.2266 177.914 53.3203 178.359 53.4062C179.273 53.5938 180.09 53.8398 180.809 54.1445C181.527 54.4414 182.098 54.8477 182.52 55.3633C182.941 55.8711 183.152 56.5391 183.152 57.3672C183.152 57.9297 183.027 58.4453 182.777 58.9141C182.527 59.3828 182.168 59.793 181.699 60.1445C181.23 60.4883 180.668 60.7578 180.012 60.9531C179.363 61.1406 178.633 61.2344 177.82 61.2344C176.641 61.2344 175.641 61.0234 174.82 60.6016C174.008 60.1797 173.391 59.6445 172.969 58.9961C172.555 58.3398 172.348 57.668 172.348 56.9805H175.547C175.562 57.4414 175.68 57.8125 175.898 58.0938C176.125 58.375 176.41 58.5781 176.754 58.7031C177.105 58.8281 177.484 58.8906 177.891 58.8906C178.328 58.8906 178.691 58.832 178.98 58.7148C179.27 58.5898 179.488 58.4258 179.637 58.2227C179.793 58.0117 179.871 57.7695 179.871 57.4961Z" fill="#888888"/>
<path d="M106.688 119H99.1172L99.1641 112.672H106.688C108.25 112.672 109.57 112.297 110.648 111.547C111.742 110.797 112.57 109.68 113.133 108.195C113.711 106.695 114 104.852 114 102.664V101.188C114 99.5469 113.836 98.1094 113.508 96.875C113.195 95.625 112.727 94.5859 112.102 93.7578C111.477 92.9141 110.695 92.2812 109.758 91.8594C108.836 91.4375 107.773 91.2266 106.57 91.2266H98.9766V84.875H106.57C108.883 84.875 111 85.2734 112.922 86.0703C114.859 86.8516 116.531 87.9766 117.938 89.4453C119.359 90.8984 120.453 92.625 121.219 94.625C122 96.6094 122.391 98.8125 122.391 101.234V102.664C122.391 105.07 122 107.273 121.219 109.273C120.453 111.273 119.367 113 117.961 114.453C116.555 115.906 114.891 117.031 112.969 117.828C111.062 118.609 108.969 119 106.688 119ZM103.828 84.875V119H95.6016V84.875H103.828ZM138.586 119.469C136.523 119.469 134.68 119.148 133.055 118.508C131.43 117.852 130.055 116.953 128.93 115.812C127.82 114.672 126.969 113.359 126.375 111.875C125.797 110.391 125.508 108.82 125.508 107.164V106.273C125.508 104.414 125.766 102.695 126.281 101.117C126.797 99.5234 127.562 98.1328 128.578 96.9453C129.594 95.7578 130.867 94.8359 132.398 94.1797C133.93 93.5078 135.711 93.1719 137.742 93.1719C139.539 93.1719 141.148 93.4609 142.57 94.0391C143.992 94.6172 145.195 95.4453 146.18 96.5234C147.18 97.6016 147.938 98.9062 148.453 100.438C148.984 101.969 149.25 103.688 149.25 105.594V108.805H128.531V103.859H141.539V103.25C141.555 102.406 141.406 101.688 141.094 101.094C140.797 100.5 140.359 100.047 139.781 99.7344C139.203 99.4219 138.5 99.2656 137.672 99.2656C136.812 99.2656 136.102 99.4531 135.539 99.8281C134.992 100.203 134.562 100.719 134.25 101.375C133.953 102.016 133.742 102.758 133.617 103.602C133.492 104.445 133.43 105.336 133.43 106.273V107.164C133.43 108.102 133.555 108.953 133.805 109.719C134.07 110.484 134.445 111.141 134.93 111.688C135.43 112.219 136.023 112.633 136.711 112.93C137.414 113.227 138.211 113.375 139.102 113.375C140.18 113.375 141.242 113.172 142.289 112.766C143.336 112.359 144.234 111.688 144.984 110.75L148.57 115.016C148.055 115.75 147.32 116.461 146.367 117.148C145.43 117.836 144.305 118.398 142.992 118.836C141.68 119.258 140.211 119.469 138.586 119.469ZM160.43 99.0078V119H152.531V93.6406H159.938L160.43 99.0078ZM159.469 105.453L157.664 105.5C157.664 103.719 157.875 102.078 158.297 100.578C158.719 99.0781 159.344 97.7734 160.172 96.6641C161 95.5547 162.016 94.6953 163.219 94.0859C164.438 93.4766 165.844 93.1719 167.438 93.1719C168.547 93.1719 169.555 93.3438 170.461 93.6875C171.367 94.0156 172.148 94.5391 172.805 95.2578C173.461 95.9609 173.961 96.8828 174.305 98.0234C174.664 99.1484 174.844 100.5 174.844 102.078V119H166.945V103.086C166.945 102.008 166.82 101.195 166.57 100.648C166.336 100.102 165.992 99.7344 165.539 99.5469C165.086 99.3594 164.531 99.2656 163.875 99.2656C163.188 99.2656 162.57 99.4219 162.023 99.7344C161.477 100.047 161.008 100.484 160.617 101.047C160.242 101.594 159.953 102.242 159.75 102.992C159.562 103.742 159.469 104.562 159.469 105.453ZM173.953 105.453L171.75 105.5C171.75 103.719 171.945 102.078 172.336 100.578C172.742 99.0781 173.344 97.7734 174.141 96.6641C174.953 95.5547 175.961 94.6953 177.164 94.0859C178.367 93.4766 179.766 93.1719 181.359 93.1719C182.516 93.1719 183.578 93.3438 184.547 93.6875C185.516 94.0312 186.352 94.5859 187.055 95.3516C187.758 96.1172 188.305 97.1328 188.695 98.3984C189.086 99.6484 189.281 101.195 189.281 103.039V119H181.359V103.039C181.359 101.992 181.234 101.203 180.984 100.672C180.75 100.125 180.406 99.7578 179.953 99.5703C179.5 99.3672 178.961 99.2656 178.336 99.2656C177.586 99.2656 176.938 99.4219 176.391 99.7344C175.844 100.047 175.383 100.484 175.008 101.047C174.648 101.594 174.383 102.242 174.211 102.992C174.039 103.742 173.953 104.562 173.953 105.453ZM192.82 106.578V106.086C192.82 104.227 193.086 102.516 193.617 100.953C194.148 99.375 194.93 98.0078 195.961 96.8516C196.992 95.6953 198.266 94.7969 199.781 94.1562C201.297 93.5 203.047 93.1719 205.031 93.1719C207.031 93.1719 208.789 93.5 210.305 94.1562C211.836 94.7969 213.117 95.6953 214.148 96.8516C215.18 98.0078 215.961 99.375 216.492 100.953C217.023 102.516 217.289 104.227 217.289 106.086V106.578C217.289 108.422 217.023 110.133 216.492 111.711C215.961 113.273 215.18 114.641 214.148 115.812C213.117 116.969 211.844 117.867 210.328 118.508C208.812 119.148 207.062 119.469 205.078 119.469C203.094 119.469 201.336 119.148 199.805 118.508C198.273 117.867 196.992 116.969 195.961 115.812C194.93 114.641 194.148 113.273 193.617 111.711C193.086 110.133 192.82 108.422 192.82 106.578ZM200.719 106.086V106.578C200.719 107.531 200.789 108.422 200.93 109.25C201.07 110.078 201.305 110.805 201.633 111.43C201.961 112.039 202.406 112.516 202.969 112.859C203.531 113.203 204.234 113.375 205.078 113.375C205.906 113.375 206.594 113.203 207.141 112.859C207.703 112.516 208.148 112.039 208.477 111.43C208.805 110.805 209.039 110.078 209.18 109.25C209.32 108.422 209.391 107.531 209.391 106.578V106.086C209.391 105.164 209.32 104.297 209.18 103.484C209.039 102.656 208.805 101.93 208.477 101.305C208.148 100.664 207.703 100.164 207.141 99.8047C206.578 99.4453 205.875 99.2656 205.031 99.2656C204.203 99.2656 203.508 99.4453 202.945 99.8047C202.398 100.164 201.961 100.664 201.633 101.305C201.305 101.93 201.07 102.656 200.93 103.484C200.789 104.297 200.719 105.164 200.719 106.086Z" fill="black"/>
<path d="M1134 0H1348C1356.28 0 1363 6.71573 1363 15V148C1363 156.284 1356.28 163 1348 163H1134V0Z" fill="#1D2D3B"/>
<path d="M1281 46.5H1216L1213.5 49V114L1216 116.5H1281L1283.5 114V49L1281 46.5ZM1278.5 111.5H1233.5V101.5H1245C1246.5 104.5 1250 106.5 1253.5 106.5C1259 106.5 1263.5 102 1263.5 96.5C1263.5 91 1259 86.5 1253.5 86.5C1248 86.5 1243.5 91 1243.5 96.5H1228.5V111.5H1218.5V51.5H1228.5V63C1225.5 64.5 1223.5 68 1223.5 71.5C1223.5 77 1228 81.5 1233.5 81.5C1239 81.5 1243.5 77 1243.5 71.5H1253.5C1253.5 77 1258 81.5 1263.5 81.5C1269 81.5 1273.5 77 1273.5 71.5C1273.5 66 1269 61.5 1263.5 61.5C1260 61.5 1256.5 63.5 1255 66.5H1242C1240.5 63.5 1237 61.5 1233.5 61.5V51.5H1278.5V111.5ZM1248.5 96.5C1248.5 93.5 1250.5 91.5 1253.5 91.5C1256.5 91.5 1258.5 93.5 1258.5 96.5C1258.5 99.5 1256.5 101.5 1253.5 101.5C1250.5 101.5 1248.5 99.5 1248.5 96.5ZM1233.5 66.5C1236.5 66.5 1238.5 68.5 1238.5 71.5C1238.5 74.5 1236.5 76.5 1233.5 76.5C1230.5 76.5 1228.5 74.5 1228.5 71.5C1228.5 68.5 1230.5 66.5 1233.5 66.5ZM1263.5 66.5C1266.5 66.5 1268.5 68.5 1268.5 71.5C1268.5 74.5 1266.5 76.5 1263.5 76.5C1260.5 76.5 1258.5 74.5 1258.5 71.5C1258.5 68.5 1260.5 66.5 1263.5 66.5Z" fill="white"/>
</svg>
